<?xml version="1.0" encoding="utf-8"?>
<!-- Generator: Adobe Illustrator 24.0.3, SVG Export Plug-In . SVG Version: 6.00 Build 0)  -->
<svg version="1.1" id="Capa_1" xmlns="http://www.w3.org/2000/svg" xmlns:xlink="http://www.w3.org/1999/xlink" x="0px" y="0px"
	 width="147.352px" height="99.092px" viewBox="0 0 147.352 99.092" style="enable-background:new 0 0 147.352 99.092;"
	 xml:space="preserve">
<style type="text/css">
	.st0{fill:#1F68F8;}
	.st1{fill:#00D8AD;}
	.st2{opacity:0.6;fill:#00D8AD;}
	.st3{fill:#FFD98B;}
	.st4{opacity:0.6;fill:#FFD98B;}
	.st5{fill:#FF5CD8;}
	.st6{fill:#FFD745;}
	.st7{opacity:0.6;fill:#FFD745;}
</style>
<g>
	<g>
		<g>
			<path class="st0" d="M20.875,27.852c0,0-1.301-2.562,1.492-4.587c2.793-2.024,7.42-3.822,7.697-5.986
				c0,0,2.045,0.431,2.928,2.261c0.883,1.83-4.161,4.698-6.302,6.038c-2.141,1.339-3.867,2.671-3.571,4.252L20.875,27.852z"/>
			<path class="st0" d="M29.751,23.634c-1.122,0.768-2.284,1.458-3.062,1.945c-2.141,1.339-3.867,2.671-3.571,4.252l-2.244-1.979
				c0,0-1.074-2.117,0.828-4.023C23.075,23.992,26.003,24.194,29.751,23.634z"/>
			<path class="st1" d="M33.601,25.846c0,0-2.51-0.881-5.9,1.129c-3.224,1.911-6.827,0.877-6.827,0.877s1.173,3.365,4.314,3.332
				c3.142-0.034,6.69-3.005,8.479-2.949c1.789,0.056,3.112,0.626,3.112,0.626L33.601,25.846z"/>
			<path class="st2" d="M25.915,31.125c0.364-0.968,0.704-2.216,0.805-3.661c0.328-0.137,0.656-0.298,0.98-0.49
				c3.39-2.009,5.9-1.129,5.9-1.129l3.179,3.015c0,0-1.322-0.57-3.112-0.626C32.016,28.183,28.863,30.712,25.915,31.125z"/>
			<path class="st0" d="M24.943,38.987c0,0-0.941-0.959,0.35-2.913c1.291-1.955,7.605-5.313,8.246-7.352
				c0.525-1.671,0.062-2.876,0.062-2.876s3.946,1.425,3.881,4.282c-0.047,2.094-2.18,3.796-4.699,5.97
				c-2.52,2.174-5.928,3.969-5.928,3.969L24.943,38.987z"/>
			<path class="st0" d="M36.245,32.868c-0.867,1.03-2.108,2.062-3.462,3.23c-2.52,2.174-5.928,3.969-5.928,3.969l-1.912-1.08
				c0,0-0.941-0.959,0.35-2.913c0.592-0.896,2.239-2.087,3.912-3.311C30.784,32.949,33.575,33.173,36.245,32.868z"/>
			<path class="st1" d="M37.732,35.117c0,0-1.508-1.079-4.575-0.486c-3.566,0.69-5.392,4.363-8.215,4.356
				c0,0,2.033,3.579,6.414,1.674c4.381-1.905,5.66-5.638,9.906-2.479L37.732,35.117z"/>
			<path class="st2" d="M27.936,39.889c0.431,0.683,1.149,1.055,1.808,1.259c-3.269,0.533-4.801-2.16-4.801-2.16
				c0.878,0.002,1.66-0.352,2.428-0.862C27.438,38.723,27.599,39.356,27.936,39.889z"/>
			<path class="st0" d="M34.845,49.366l7.556,2.637c0,0,4.124-12.188-4.668-16.886c0,0,1.841,1.598,1.332,6.836
				C38.819,44.468,37.399,47.041,34.845,49.366z"/>
			<path class="st0" d="M43.034,42.343c-1.126-2.469-2.874-3.482-3.992-3.891c-0.334-2.485-1.31-3.335-1.31-3.335
				C40.958,36.841,42.444,39.574,43.034,42.343z"/>
		</g>
		<g>
			<path class="st0" d="M28.82,55.439c0,0,0.576-0.774-0.232-1.603c-0.809-0.829-2.237-1.687-2.206-2.419
				c0,0-0.701,0.026-1.097,0.581c-0.396,0.555,1.109,1.792,1.741,2.357c0.632,0.565,1.127,1.104,0.939,1.61L28.82,55.439z"/>
			<path class="st0" d="M26.123,53.537c0.327,0.318,0.673,0.612,0.902,0.818c0.632,0.565,1.127,1.104,0.939,1.61l0.855-0.527
				c0,0,0.476-0.639-0.045-1.378C28.312,54.036,27.331,53.936,26.123,53.537z"/>
			<path class="st1" d="M24.723,54.05c0,0,0.881-0.148,1.888,0.71c0.958,0.816,2.209,0.679,2.209,0.679s-0.58,1.047-1.617,0.856
				c-1.038-0.19-2.042-1.375-2.638-1.459s-1.065,0.03-1.065,0.03L24.723,54.05z"/>
			<path class="st2" d="M26.965,56.235c-0.065-0.341-0.107-0.773-0.058-1.257c-0.101-0.064-0.2-0.136-0.296-0.218
				c-1.007-0.858-1.888-0.71-1.888-0.71L23.5,54.866c0,0,0.47-0.113,1.065-0.03C25.115,54.914,26.014,55.93,26.965,56.235z"/>
			<path class="st0" d="M26.839,58.891c0,0,0.366-0.264,0.05-0.984c-0.316-0.72-2.214-2.191-2.309-2.902
				c-0.079-0.583,0.143-0.955,0.143-0.955s-1.387,0.247-1.528,1.196c-0.104,0.696,0.505,1.38,1.215,2.243
				c0.71,0.863,1.735,1.651,1.735,1.651L26.839,58.891z"/>
			<path class="st0" d="M23.448,56.223c0.228,0.39,0.58,0.802,0.961,1.266c0.71,0.863,1.735,1.651,1.735,1.651l0.694-0.249
				c0,0,0.366-0.264,0.05-0.984c-0.145-0.33-0.622-0.818-1.106-1.318C25.251,56.561,24.314,56.476,23.448,56.223z"/>
			<path class="st1" d="M22.828,56.882c0,0,0.56-0.271,1.541,0.1c1.141,0.431,1.535,1.751,2.47,1.909c0,0-0.877,1.068-2.218,0.188
				c-1.341-0.88-1.552-2.188-3.136-1.385L22.828,56.882z"/>
			<path class="st2" d="M25.798,59.019c-0.182,0.201-0.44,0.284-0.67,0.313c1.051,0.363,1.712-0.441,1.712-0.441
				c-0.291-0.049-0.529-0.211-0.754-0.424C26.029,58.662,25.939,58.862,25.798,59.019z"/>
			<path class="st0" d="M22.971,61.761l-2.65,0.442c0,0-0.67-4.267,2.507-5.321c0,0-0.7,0.424-0.83,2.186
				C21.936,59.914,22.259,60.846,22.971,61.761z"/>
			<path class="st0" d="M20.662,58.971c0.513-0.753,1.149-0.988,1.543-1.06c0.252-0.803,0.623-1.029,0.623-1.029
				C21.662,57.269,21.015,58.088,20.662,58.971z"/>
		</g>
		<g>
			<path class="st0" d="M11.128,40.835c0,0,0.298-1.37-1.27-1.981c-1.568-0.611-3.973-0.888-4.371-1.875
				c0,0-0.912,0.456-1.103,1.428c-0.191,0.972,2.543,1.704,3.719,2.072c1.176,0.368,2.154,0.784,2.21,1.566L11.128,40.835z"/>
			<path class="st0" d="M10.313,42.045c-0.055-0.783-1.034-1.199-2.21-1.566c-0.367-0.115-0.886-0.265-1.42-0.447
				c0.537-0.307,1.349-0.845,1.958-1.569c0.427,0.121,0.845,0.247,1.217,0.392c1.568,0.611,1.27,1.981,1.27,1.981L10.313,42.045z"/>
			<path class="st1" d="M4.875,41.458c0,0,1.072-0.712,2.924-0.195c2.712,0.757,3.33-0.428,3.33-0.428s-0.138,1.733-1.625,2.104
				c-1.487,0.372-3.528-0.593-4.366-0.346c-0.837,0.247-1.391,0.679-1.391,0.679L4.875,41.458z"/>
			<path class="st2" d="M5.138,42.593c-0.837,0.247-1.391,0.679-1.391,0.679l1.128-1.815c0,0,1.072-0.712,2.924-0.195
				c0.819,0.229,1.445,0.279,1.923,0.24c0.118,0.517-0.029,1.019-0.267,1.446C7.971,43.288,5.966,42.349,5.138,42.593z"/>
			<path class="st0" d="M11.324,45.872c0,0-5.669-2.036-6.223-2.919c-0.454-0.724-0.226-1.495-0.226-1.495s-1.851,0.861-1.304,2.5
				c0.324,0.969,1.497,1.523,2.954,2.238c1.457,0.715,3.287,1.142,3.287,1.142L11.324,45.872z"/>
			<path class="st0" d="M5.341,43.195c-0.711,0.414-0.969,1.084-1.016,1.756c-0.361-0.29-0.625-0.609-0.754-0.994
				c-0.548-1.639,1.304-2.5,1.304-2.5s-0.228,0.771,0.226,1.495C5.147,43.026,5.231,43.108,5.341,43.195z"/>
		</g>
		<g>
			<path class="st3" d="M2.375,15.519c0,0,0.381-0.519,1.39-0.229l-0.245,0.628c0,0-0.814-0.334-1.302,0.178L2.375,15.519z"/>
			<path class="st4" d="M3.176,15.829c-0.28-0.043-0.675-0.032-0.959,0.266l0.158-0.576c0,0,0.088-0.119,0.29-0.211L3.176,15.829z"
				/>
			<path class="st0" d="M4.737,17.731c0,0,0.038-0.353-0.717-0.869c-0.755-0.516-1.646-1.343-1.646-1.343s-0.217,0.366-0.25,0.638
				c-0.031,0.255,2.232,1.627,2.394,2.132L4.737,17.731z"/>
			<path class="st0" d="M3.582,17.382l0.203-0.688c0.079,0.058,0.158,0.115,0.236,0.168c0.755,0.516,0.717,0.869,0.717,0.869
				L4.519,18.29C4.454,18.085,4.044,17.739,3.582,17.382z"/>
			<path class="st3" d="M1.667,17.328c0,0,2.573,0.926,3.07,0.385c0,0-0.019,0.474-0.399,0.779c-0.381,0.306-2.844-0.52-2.844-0.52
				L1.667,17.328z"/>
			<path class="st4" d="M1.667,17.328c0,0,1.022,0.368,1.903,0.504l0.09,0.698c-0.857-0.12-2.165-0.559-2.165-0.559L1.667,17.328z"
				/>
			<path class="st0" d="M4.024,19.556c0,0,0.038-0.353-0.717-0.869c-0.755-0.516-1.646-1.343-1.646-1.343s-0.217,0.366-0.25,0.638
				c-0.031,0.255,2.232,1.627,2.394,2.132L4.024,19.556z"/>
			<path class="st0" d="M2.706,19.083l0.184-0.7c0.139,0.107,0.28,0.21,0.416,0.303c0.755,0.516,0.717,0.869,0.717,0.869
				l-0.218,0.558C3.732,19.886,3.231,19.482,2.706,19.083z"/>
			<path class="st3" d="M0.954,19.152c0,0,2.573,0.926,3.07,0.385c0,0-0.019,0.474-0.399,0.779c-0.381,0.306-2.844-0.52-2.844-0.52
				L0.954,19.152z"/>
			<path class="st4" d="M0.954,19.152c0,0,0.968,0.349,1.832,0.493l0.263,0.722c-0.851-0.096-2.267-0.572-2.267-0.572L0.954,19.152z
				"/>
			<path class="st0" d="M3.317,21.364c0,0,0.038-0.353-0.717-0.869s-1.646-1.343-1.646-1.343s-0.217,0.366-0.25,0.638
				c-0.031,0.255,2.232,1.627,2.394,2.132L3.317,21.364z"/>
			<path class="st0" d="M2.224,21.064l-0.12-0.934c0.165,0.128,0.334,0.254,0.496,0.365c0.755,0.516,0.717,0.869,0.717,0.869
				l-0.218,0.558C3.036,21.727,2.66,21.403,2.224,21.064z"/>
			<path class="st3" d="M0.258,21.589c0,0,2.525,0.174,3.058-0.225c0,0-0.062,0.51-0.318,0.814C2.742,22.482,0,22.437,0,22.437
				S0.047,22.081,0.258,21.589z"/>
			<path class="st4" d="M2.71,21.554c0.268-0.04,0.487-0.101,0.607-0.19c0,0-0.062,0.51-0.318,0.814
				c-0.037,0.043-0.124,0.08-0.246,0.11L2.71,21.554z"/>
		</g>
		<g>
			<path class="st5" d="M35.822,63.182c0,0,0.084-1.104,1.819-1.597l0.212,1.139c0,0-1.491,0.253-1.738,1.443L35.822,63.182z"/>
			<g>
				<path class="st5" d="M36.86,63.129c-0.332,0.22-0.643,0.549-0.745,1.037l-0.293-0.984c0,0,0.054-0.666,0.892-1.195L36.86,63.129
					z"/>
			</g>
			<path class="st0" d="M41.279,64.261c0,0-0.266-0.549-1.836-0.616c-1.57-0.067-3.621-0.463-3.621-0.463s0.017,0.731,0.216,1.158
				c0.187,0.4,4.735,0.345,5.43,0.934L41.279,64.261z"/>
			<path class="st0" d="M41.279,64.261l0.189,1.013c-0.357-0.303-1.731-0.435-3.009-0.547l0.64-1.102
				c0.116,0.008,0.231,0.014,0.343,0.019C41.013,63.712,41.279,64.261,41.279,64.261z"/>
			<path class="st5" d="M36.434,66.463c0,0,4.595-0.987,4.829-2.229c0,0,0.404,0.709,0.127,1.499
				c-0.278,0.793-4.621,1.826-4.621,1.826L36.434,66.463z"/>
			<g>
				<path class="st5" d="M39.949,66.605c-1.359,0.521-3.181,0.954-3.181,0.954l-0.334-1.096c0,0,1.939-0.417,3.362-1.05
					L39.949,66.605z"/>
			</g>
			<path class="st0" d="M42.108,68.701c0,0-0.283-0.588-2.228-1.164c-1.507-0.446-3.446-1.073-3.446-1.073s0.017,0.731,0.216,1.158
				c0.187,0.4,4.951,1.504,5.647,2.093L42.108,68.701z"/>
			<path class="st0" d="M42.297,69.714c-0.312-0.265-1.446-0.633-2.617-0.995l-0.338-1.344c0.183,0.055,0.364,0.11,0.538,0.161
				c1.945,0.576,2.228,1.164,2.228,1.164L42.297,69.714z"/>
			<path class="st5" d="M37.38,73.034c0,0,4.477-3.118,4.711-4.36c0,0,0.404,0.709,0.127,1.499
				c-0.278,0.793-4.504,3.957-4.504,3.957L37.38,73.034z"/>
			<g>
				<path class="st5" d="M41.591,70.939l-0.432-0.963c0.502-0.504,0.869-0.971,0.931-1.302c0,0,0.404,0.709,0.127,1.499
					C42.159,70.34,41.924,70.613,41.591,70.939z"/>
			</g>
		</g>
		<g>
			<path class="st5" d="M37.847,58.549c-0.461-0.9-1.231-2.02-1.149-3.081c0.076-0.979,0.743-1.852,1.697-2.109
				c0.14-0.038,0.815,1.976,0.924,1.947c-0.629,0.169-1.123,0.583-1.422,1.162c-0.141,0.272-0.233,0.566-0.266,0.871
				c-0.017,0.151-0.019,0.301-0.005,0.453c0.005,0.075,0.015,0.15,0.031,0.224c0.175,0.681-0.056,0.232-0.696-1.347
				C37.256,57.245,37.615,58.095,37.847,58.549L37.847,58.549z"/>
		</g>
		<g>
			<path class="st5" d="M11.358,31.958c0.243-0.639,0.267-1.312,0.053-1.965c-0.097-0.296-0.273-0.536-0.404-0.811
				c-0.055-0.084-0.116-0.164-0.182-0.24c0.338,0.3,0.676,0.601,1.014,0.901c-0.152-0.017-0.393-0.21-0.538-0.269
				c-0.632-0.255-0.989-1.181-1.611-1.432c0.979,0.395,1.879,1.318,2.598,2.069c0.815,0.851,1.102,2.073,0.681,3.179
				C13.055,33.166,11.262,32.211,11.358,31.958L11.358,31.958z"/>
		</g>
		<g>
			<path class="st0" d="M40.865,89.648c-0.654-2.362-0.434-5.106,1.603-6.719c-0.2,0.158,0.337,1.262,0.123,1.432
				c-0.64,0.507-1.149,1.128-1.484,1.875c-0.147,0.327-0.258,0.672-0.334,1.022c-0.107,0.497-0.104,0.695-0.031,0.958
				C40.868,88.672,40.74,89.197,40.865,89.648L40.865,89.648z"/>
		</g>
		<g>
			<path class="st6" d="M15.888,81.233c2.341-1.311,5.846,0.505,6.419,3.082c-0.072-0.322-1.141-0.429-1.216-0.766
				c-0.103-0.461-0.257-0.888-0.52-1.286c-0.121-0.183-0.355-0.352-0.442-0.539c-0.145-0.126-0.13-0.134,0.047-0.024
				c0.238,0.116,0.191,0.104-0.139-0.036c-1.044-0.267-1.981-0.199-2.933,0.334C16.896,82.115,16.079,81.126,15.888,81.233
				L15.888,81.233z"/>
		</g>
		<g>
			<path class="st6" d="M38.724,79.549c0.734-0.094,0.881,1.046,0.147,1.14C38.137,80.784,37.989,79.644,38.724,79.549
				L38.724,79.549z"/>
		</g>
		<g>
			<path class="st5" d="M28.773,72.33c1.467-0.189,1.763,2.091,0.293,2.28C27.599,74.799,27.303,72.519,28.773,72.33L28.773,72.33z"
				/>
		</g>
		<g>
			<path class="st0" d="M32.265,10.873c0.734-0.094,0.881,1.046,0.147,1.14C31.678,12.108,31.53,10.968,32.265,10.873L32.265,10.873
				z"/>
		</g>
		<g>
			<path class="st0" d="M22.14,37.254c0.734-0.094,0.881,1.046,0.147,1.14C21.553,38.488,21.405,37.348,22.14,37.254L22.14,37.254z"
				/>
		</g>
		<g>
			<path class="st5" d="M29.39,51.582c0.734-0.094,0.881,1.046,0.147,1.14C28.803,52.816,28.655,51.676,29.39,51.582L29.39,51.582z"
				/>
		</g>
		<g>
			<path class="st5" d="M47.657,62.949c0.734-0.094,0.881,1.046,0.147,1.14C47.07,64.184,46.922,63.044,47.657,62.949L47.657,62.949
				z"/>
		</g>
		<g>
			<path class="st0" d="M49.174,55.22c0.734-0.094,0.881,1.046,0.147,1.14C48.587,56.455,48.44,55.315,49.174,55.22L49.174,55.22z"
				/>
		</g>
		<g>
			<path class="st0" d="M48.66,78.273c-0.063,0.008-0.127,0.016-0.19,0.024c-0.298,0.038-0.618-0.187-0.643-0.497
				c-0.026-0.311,0.177-0.602,0.497-0.643c0.063-0.008,0.127-0.016,0.19-0.024c0.298-0.038,0.618,0.187,0.643,0.497
				C49.183,77.941,48.98,78.232,48.66,78.273L48.66,78.273z"/>
		</g>
		<g>
			<path class="st6" d="M19.178,11.906c0.51-3.09,2.656-5.766,5.62-6.83C27.462,4.12,32.377,3.883,32.368,0
				c0,0.139,1.024,0.743,1.162,0.845c0.161,0.119,1.145,0.664,1.145,0.868c0.01,3.884-4.907,4.12-7.57,5.076
				c-2.964,1.064-5.11,3.74-5.62,6.83c0.015-0.089-1.05-0.762-1.162-0.845C20.196,12.679,19.154,12.053,19.178,11.906L19.178,11.906
				z"/>
			<path class="st7" d="M28.391,4.066c1.05,0.398,2.048,0.978,2.865,1.529c-1.417,0.5-2.995,0.78-4.15,1.194
				c-1.641,0.589-3.029,1.673-4.03,3.047c-0.451-0.952-0.874-2.209-0.723-3.38c0.725-0.585,1.547-1.058,2.445-1.38
				C25.803,4.715,27.129,4.457,28.391,4.066z"/>
		</g>
		<g>
			<path class="st5" d="M17.207,22.619c-0.2-3.003-3.677-4.54-6.243-3.677c0.162-0.054-0.325-2.087-0.134-2.151
				c1.6-0.538,3.399-0.282,4.688,0.852c1.169,1.028,1.541,2.399,1.641,3.89c0.033,0.489,0.081,0.981,0.088,1.472
				C17.251,23.38,17.211,22.686,17.207,22.619L17.207,22.619z"/>
			<path class="st5" d="M15.517,17.642c1.169,1.028,1.541,2.399,1.641,3.89c0.033,0.489,0.081,0.981,0.088,1.472
				c0.006,0.376-0.034-0.317-0.039-0.385c-0.081-1.221-0.704-2.199-1.587-2.873l-0.688-2.536
				C15.135,17.337,15.332,17.479,15.517,17.642z"/>
		</g>
		<g>
			<path class="st0" d="M32.444,79.383c0.374-1.036,1.248-1.778,2.331-1.978c0.187-0.035,0.607,1.241,0.775,1.21
				c-1.083,0.2-1.957,0.942-2.331,1.978c0.024-0.067-0.346-0.527-0.394-0.601C32.77,79.906,32.408,79.481,32.444,79.383
				L32.444,79.383z"/>
		</g>
		<g>
			<path class="st5" d="M45.724,32.413c-1.337-1.04-2.207-3.003-2.667-4.605c-0.714-2.489,0.221-5.012,1.101-7.327
				c-0.049,0.129,0.399,0.832,0.464,0.973c0.076,0.164,0.511,0.806,0.445,0.982c-0.616,1.622-1.248,3.281-1.345,5.032
				c-0.042,0.752,0.107,1.422,0.204,2.157c0.163,0.508,0.08,0.376-0.247-0.394c0.099,0.158,0.207,0.31,0.324,0.456
				c0.239,0.295,0.512,0.54,0.811,0.773C45.325,30.855,45.226,32.025,45.724,32.413L45.724,32.413z"/>
			<path class="st5" d="M44.815,30.458c0.51,0.397,0.411,1.567,0.909,1.954c-0.636-0.495-1.165-1.2-1.596-1.974
				c-0.135-0.481-0.201-0.814-0.201-0.814l0.027-0.006c0.017,0.022,0.033,0.045,0.051,0.068
				C44.244,29.981,44.517,30.226,44.815,30.458z"/>
		</g>
		<g>
			<path class="st5" d="M25.232,44.776c1.467-0.189,1.763,2.091,0.293,2.28C24.057,47.245,23.762,44.965,25.232,44.776
				L25.232,44.776z"/>
		</g>
		<g>
			<path class="st5" d="M19.584,15.079c1.467-0.189,1.763,2.091,0.293,2.28C18.41,17.547,18.115,15.267,19.584,15.079L19.584,15.079
				z"/>
		</g>
		<g>
			<path class="st6" d="M8.085,28.597c0.367-0.047,0.441,0.523,0.073,0.57C7.792,29.214,7.718,28.644,8.085,28.597L8.085,28.597z"/>
		</g>
		<g>
			<path class="st6" d="M6.094,30.141c0.367-0.047,0.441,0.523,0.073,0.57C5.801,30.758,5.727,30.188,6.094,30.141L6.094,30.141z"/>
		</g>
		<g>
			<path class="st6" d="M20.442,75.139c0.005,0.042,0.011,0.084,0.016,0.127c0.019,0.149-0.094,0.309-0.248,0.322
				c-0.155,0.013-0.301-0.089-0.322-0.248c-0.005-0.042-0.011-0.084-0.016-0.127c-0.019-0.149,0.094-0.309,0.248-0.322
				C20.275,74.878,20.421,74.98,20.442,75.139L20.442,75.139z"/>
		</g>
		<g>
			<path class="st6" d="M12.321,74.831c-0.042,0.005-0.084,0.011-0.127,0.016c-0.149,0.019-0.309-0.094-0.322-0.248
				c-0.013-0.155,0.089-0.301,0.248-0.322c0.042-0.005,0.084-0.011,0.127-0.016c0.149-0.019,0.309,0.094,0.322,0.248
				C12.582,74.665,12.481,74.81,12.321,74.831L12.321,74.831z"/>
		</g>
		<g>
			<path class="st6" d="M12.141,56.149c0.367-0.047,0.441,0.523,0.073,0.57C11.848,56.766,11.774,56.196,12.141,56.149
				L12.141,56.149z"/>
		</g>
		<g>
			<path class="st6" d="M18.1,56.007c-0.048-0.037-0.095-0.074-0.143-0.11c-0.123-0.095-0.147-0.28-0.052-0.403
				c0.095-0.123,0.28-0.147,0.403-0.052c0.048,0.037,0.095,0.074,0.143,0.11c0.123,0.095,0.147,0.28,0.052,0.403
				C18.407,56.078,18.223,56.102,18.1,56.007L18.1,56.007z"/>
		</g>
		<g>
			<path class="st6" d="M26.344,67.459c0.367-0.047,0.441,0.523,0.073,0.57C26.051,68.076,25.977,67.506,26.344,67.459
				L26.344,67.459z"/>
		</g>
		<g>
			<path class="st6" d="M29.958,63.517c0.367-0.047,0.441,0.523,0.073,0.57C29.665,64.135,29.591,63.565,29.958,63.517
				L29.958,63.517z"/>
		</g>
		<g>
			<path class="st6" d="M45.869,40.772c0.005,0.042,0.011,0.084,0.016,0.127c0.019,0.149-0.094,0.309-0.248,0.322
				c-0.155,0.013-0.301-0.089-0.322-0.248c-0.005-0.042-0.011-0.084-0.016-0.127c-0.019-0.149,0.094-0.309,0.248-0.322
				C45.702,40.51,45.848,40.612,45.869,40.772L45.869,40.772z"/>
		</g>
		<g>
			<path class="st6" d="M44.85,36.105c0.367-0.047,0.441,0.523,0.073,0.57C44.557,36.723,44.483,36.153,44.85,36.105L44.85,36.105z"
				/>
		</g>
		<g>
			<path class="st6" d="M34.571,41.29c0.367-0.047,0.441,0.523,0.073,0.57C34.277,41.907,34.203,41.337,34.571,41.29L34.571,41.29z"
				/>
		</g>
		<g>
			<path class="st5" d="M17.604,41.539c0.367-0.047,0.441,0.523,0.073,0.57C17.31,42.156,17.237,41.586,17.604,41.539L17.604,41.539
				z"/>
		</g>
		<g>
			<path class="st5" d="M17.324,38.356c0.367-0.047,0.441,0.523,0.073,0.57C17.03,38.973,16.956,38.403,17.324,38.356L17.324,38.356
				z"/>
		</g>
		<g>
			<path class="st5" d="M12.758,11.098c0.005,0.042,0.011,0.084,0.016,0.127c0.019,0.149-0.094,0.309-0.248,0.322
				c-0.155,0.013-0.301-0.089-0.322-0.248c-0.005-0.042-0.011-0.084-0.016-0.127c-0.019-0.149,0.094-0.309,0.248-0.322
				C12.591,10.837,12.737,10.938,12.758,11.098L12.758,11.098z"/>
		</g>
		<g>
			<path class="st5" d="M20.733,32.316c0.367-0.047,0.441,0.523,0.073,0.57C20.439,32.933,20.365,32.363,20.733,32.316
				L20.733,32.316z"/>
		</g>
	</g>
	<g>
		<path class="st0" d="M114.268,45.228c0,0-1.612,2.379,0.905,4.738c2.517,2.359,6.882,4.722,6.885,6.903
			c0,0,2.083-0.171,3.188-1.876c1.105-1.704-3.539-5.183-5.495-6.78c-1.956-1.597-3.501-3.135-3.009-4.667L114.268,45.228z"/>
		<path class="st0" d="M122.545,50.526c-1.017-0.903-2.083-1.732-2.794-2.313c-1.956-1.597-3.501-3.135-3.009-4.667l-2.474,1.682
			c0,0-1.331,1.966,0.317,4.095C115.967,49.334,118.897,49.501,122.545,50.526z"/>
		<path class="st1" d="M126.642,48.814c0,0-2.6,0.559-5.712-1.859c-2.959-2.3-6.663-1.726-6.663-1.726s1.585-3.192,4.698-2.764
			c3.113,0.427,6.261,3.82,8.043,3.989c1.782,0.169,3.166-0.231,3.166-0.231L126.642,48.814z"/>
		<path class="st2" d="M119.679,42.613c0.239,1.006,0.42,2.287,0.34,3.733c0.308,0.177,0.614,0.378,0.911,0.609
			c3.112,2.418,5.712,1.859,5.712,1.859l3.532-2.593c0,0-1.384,0.4-3.166,0.231C125.363,46.297,122.551,43.393,119.679,42.613z"/>
		<path class="st0" d="M119.7,34.691c0,0-1.053,0.833-0.018,2.934c1.036,2.101,6.879,6.225,7.259,8.327
			c0.312,1.724-0.299,2.861-0.299,2.861s4.093-0.919,4.388-3.761c0.216-2.083-1.686-4.039-3.913-6.513
			c-2.227-2.473-5.384-4.681-5.384-4.681L119.7,34.691z"/>
		<path class="st0" d="M130.146,42.179c-0.731-1.13-1.833-2.31-3.03-3.639c-2.227-2.473-5.384-4.681-5.384-4.681l-2.033,0.832
			c0,0-1.053,0.833-0.018,2.934c0.475,0.963,1.96,2.352,3.466,3.776C124.738,41.414,127.535,41.542,130.146,42.179z"/>
		<path class="st1" d="M131.903,40.134c0,0-1.632,0.881-4.599-0.092c-3.451-1.131-4.802-5.005-7.604-5.352
			c0,0,2.466-3.295,6.574-0.856c4.108,2.439,4.909,6.303,9.517,3.702L131.903,40.134z"/>
		<path class="st2" d="M122.782,34.172c0.514-0.624,1.272-0.903,1.952-1.022c-3.176-0.939-5.034,1.541-5.034,1.541
			c0.872,0.108,1.603,0.557,2.301,1.159C122.143,35.266,122.382,34.658,122.782,34.172z"/>
		<path class="st0" d="M130.825,25.636l7.827-1.669c0,0,2.563,12.608-6.749,16.168c0,0,2.027-1.355,2.178-6.615
			C134.154,30.993,133.068,28.263,130.825,25.636z"/>
		<path class="st0" d="M138.069,33.631c-1.426,2.308-3.288,3.094-4.448,3.36c-0.643,2.423-1.718,3.144-1.718,3.144
			C135.32,38.828,137.137,36.303,138.069,33.631z"/>
	</g>
	<g>
		<path class="st0" d="M125.858,66.562c0,0-0.576-0.774,0.232-1.603c0.809-0.829,2.237-1.687,2.206-2.419
			c0,0,0.701,0.026,1.097,0.581c0.396,0.555-1.109,1.792-1.741,2.357c-0.632,0.565-1.127,1.104-0.939,1.61L125.858,66.562z"/>
		<path class="st0" d="M128.555,64.66c-0.327,0.318-0.673,0.612-0.902,0.818c-0.632,0.565-1.127,1.104-0.939,1.61l-0.855-0.527
			c0,0-0.476-0.639,0.045-1.378C126.366,65.159,127.346,65.059,128.555,64.66z"/>
		<path class="st1" d="M129.954,65.173c0,0-0.881-0.148-1.888,0.71c-0.958,0.816-2.209,0.679-2.209,0.679s0.58,1.047,1.617,0.856
			c1.038-0.19,2.042-1.375,2.638-1.459c0.595-0.083,1.065,0.03,1.065,0.03L129.954,65.173z"/>
		<path class="st2" d="M127.712,67.358c0.065-0.341,0.107-0.773,0.058-1.257c0.101-0.064,0.2-0.136,0.296-0.218
			c1.007-0.858,1.888-0.71,1.888-0.71l1.224,0.816c0,0-0.47-0.113-1.065-0.03C129.563,66.037,128.664,67.053,127.712,67.358z"/>
		<path class="st0" d="M127.838,70.014c0,0-0.366-0.264-0.05-0.984c0.316-0.72,2.214-2.191,2.309-2.902
			c0.079-0.583-0.143-0.955-0.143-0.955s1.387,0.247,1.528,1.196c0.104,0.696-0.505,1.38-1.215,2.243
			c-0.71,0.863-1.735,1.651-1.735,1.651L127.838,70.014z"/>
		<path class="st0" d="M131.229,67.346c-0.228,0.39-0.58,0.802-0.961,1.266c-0.71,0.863-1.735,1.651-1.735,1.651l-0.694-0.249
			c0,0-0.366-0.264-0.05-0.984c0.145-0.33,0.622-0.818,1.106-1.318C129.427,67.684,130.363,67.599,131.229,67.346z"/>
		<path class="st1" d="M131.849,68.005c0,0-0.561-0.271-1.541,0.1c-1.141,0.431-1.535,1.751-2.47,1.909c0,0,0.877,1.068,2.218,0.188
			c1.341-0.88,1.552-2.188,3.136-1.385L131.849,68.005z"/>
		<path class="st2" d="M128.88,70.142c0.182,0.201,0.44,0.284,0.67,0.313c-1.051,0.363-1.712-0.441-1.712-0.441
			c0.291-0.049,0.529-0.211,0.754-0.424C128.649,69.785,128.738,69.985,128.88,70.142z"/>
		<path class="st0" d="M131.706,72.884l2.65,0.442c0,0,0.67-4.267-2.507-5.321c0,0,0.7,0.424,0.83,2.186
			C132.742,71.037,132.419,71.969,131.706,72.884z"/>
		<path class="st0" d="M134.015,70.094c-0.513-0.753-1.149-0.988-1.543-1.06c-0.252-0.803-0.623-1.029-0.623-1.029
			C133.015,68.392,133.662,69.211,134.015,70.094z"/>
	</g>
	<g>
		<path class="st0" d="M102.218,92.456c0,0-0.298-1.37,1.27-1.981c1.568-0.611,3.973-0.888,4.371-1.875c0,0,0.912,0.456,1.103,1.428
			c0.191,0.972-2.543,1.704-3.719,2.072c-1.176,0.368-2.154,0.784-2.21,1.566L102.218,92.456z"/>
		<path class="st0" d="M103.033,93.666c0.055-0.783,1.034-1.199,2.21-1.566c0.367-0.115,0.886-0.265,1.42-0.447
			c-0.537-0.307-1.349-0.845-1.958-1.569c-0.427,0.121-0.845,0.247-1.217,0.392c-1.568,0.611-1.27,1.981-1.27,1.981L103.033,93.666z
			"/>
		<path class="st1" d="M108.472,93.079c0,0-1.072-0.712-2.924-0.195c-2.712,0.757-3.33-0.428-3.33-0.428s0.138,1.733,1.625,2.104
			c1.487,0.372,3.528-0.593,4.366-0.346c0.837,0.247,1.391,0.679,1.391,0.679L108.472,93.079z"/>
		<path class="st2" d="M108.209,94.215c0.837,0.247,1.391,0.679,1.391,0.679l-1.128-1.815c0,0-1.072-0.712-2.924-0.195
			c-0.819,0.229-1.445,0.279-1.923,0.24c-0.118,0.517,0.029,1.019,0.267,1.446C105.375,94.909,107.381,93.97,108.209,94.215z"/>
		<path class="st0" d="M102.023,97.493c0,0,5.669-2.036,6.223-2.919c0.454-0.724,0.226-1.495,0.226-1.495s1.851,0.861,1.304,2.5
			c-0.324,0.969-1.497,1.523-2.954,2.238c-1.457,0.715-3.287,1.142-3.287,1.142L102.023,97.493z"/>
		<path class="st0" d="M108.006,94.816c0.711,0.414,0.969,1.084,1.016,1.756c0.361-0.29,0.625-0.609,0.754-0.994
			c0.548-1.639-1.304-2.5-1.304-2.5s0.228,0.771-0.226,1.495C108.2,94.647,108.116,94.729,108.006,94.816z"/>
	</g>
	<g>
		<path class="st3" d="M118.738,68.1c0,0-0.381-0.519-1.39-0.229l0.245,0.628c0,0,0.814-0.334,1.302,0.178L118.738,68.1z"/>
		<path class="st4" d="M117.937,68.41c0.28-0.043,0.675-0.032,0.959,0.266l-0.158-0.576c0,0-0.088-0.119-0.29-0.211L117.937,68.41z"
			/>
		<path class="st0" d="M116.376,70.312c0,0-0.038-0.353,0.717-0.869c0.755-0.516,1.646-1.343,1.646-1.343s0.217,0.366,0.25,0.638
			c0.031,0.255-2.232,1.627-2.394,2.132L116.376,70.312z"/>
		<path class="st0" d="M117.531,69.963l-0.203-0.688c-0.079,0.058-0.158,0.115-0.236,0.168c-0.755,0.516-0.717,0.869-0.717,0.869
			l0.218,0.558C116.659,70.666,117.069,70.32,117.531,69.963z"/>
		<path class="st3" d="M119.446,69.908c0,0-2.573,0.926-3.07,0.385c0,0,0.019,0.474,0.399,0.779c0.381,0.306,2.844-0.52,2.844-0.52
			L119.446,69.908z"/>
		<path class="st4" d="M119.446,69.908c0,0-1.022,0.368-1.903,0.504l-0.09,0.698c0.857-0.12,2.165-0.559,2.165-0.559L119.446,69.908
			z"/>
		<path class="st0" d="M117.089,72.136c0,0-0.038-0.353,0.717-0.869c0.755-0.516,1.646-1.343,1.646-1.343s0.217,0.366,0.25,0.638
			c0.031,0.255-2.232,1.627-2.394,2.132L117.089,72.136z"/>
		<path class="st0" d="M118.407,71.664l-0.184-0.7c-0.139,0.107-0.28,0.21-0.416,0.303c-0.755,0.516-0.717,0.869-0.717,0.869
			l0.218,0.558C117.381,72.467,117.882,72.063,118.407,71.664z"/>
		<path class="st3" d="M120.159,71.733c0,0-2.573,0.926-3.07,0.385c0,0,0.019,0.474,0.399,0.779c0.381,0.306,2.844-0.52,2.844-0.52
			L120.159,71.733z"/>
		<path class="st4" d="M120.159,71.733c0,0-0.968,0.349-1.832,0.493l-0.263,0.722c0.851-0.096,2.267-0.572,2.267-0.572
			L120.159,71.733z"/>
		<path class="st0" d="M117.796,73.945c0,0-0.038-0.353,0.717-0.869c0.755-0.516,1.646-1.343,1.646-1.343s0.217,0.366,0.25,0.638
			c0.031,0.255-2.232,1.627-2.394,2.132L117.796,73.945z"/>
		<path class="st0" d="M118.889,73.645l0.12-0.934c-0.165,0.128-0.334,0.254-0.496,0.365c-0.755,0.516-0.717,0.869-0.717,0.869
			l0.218,0.558C118.077,74.308,118.453,73.984,118.889,73.645z"/>
		<path class="st3" d="M120.855,74.17c0,0-2.525,0.174-3.058-0.225c0,0,0.062,0.51,0.318,0.814c0.256,0.304,2.998,0.259,2.998,0.259
			S121.066,74.662,120.855,74.17z"/>
		<path class="st4" d="M118.403,74.135c-0.268-0.04-0.487-0.101-0.607-0.19c0,0,0.062,0.51,0.318,0.814
			c0.037,0.043,0.124,0.08,0.246,0.11L118.403,74.135z"/>
	</g>
	<g>
		<path class="st5" d="M120.758,4.232c0,0-0.084-1.104-1.819-1.597l-0.212,1.139c0,0,1.491,0.253,1.738,1.443L120.758,4.232z"/>
		<g>
			<path class="st5" d="M119.72,4.179c0.332,0.22,0.643,0.549,0.745,1.037l0.293-0.984c0,0-0.054-0.666-0.892-1.195L119.72,4.179z"
				/>
		</g>
		<path class="st0" d="M115.301,5.311c0,0,0.266-0.549,1.836-0.616c1.57-0.067,3.621-0.463,3.621-0.463s-0.017,0.731-0.216,1.158
			c-0.187,0.4-4.735,0.345-5.43,0.934L115.301,5.311z"/>
		<path class="st0" d="M115.301,5.311l-0.189,1.013c0.357-0.303,1.731-0.435,3.009-0.547l-0.64-1.102
			c-0.116,0.008-0.231,0.014-0.343,0.019C115.567,4.761,115.301,5.311,115.301,5.311z"/>
		<path class="st5" d="M120.146,7.513c0,0-4.595-0.987-4.829-2.229c0,0-0.404,0.709-0.127,1.499
			c0.278,0.793,4.621,1.826,4.621,1.826L120.146,7.513z"/>
		<g>
			<path class="st5" d="M116.631,7.655c1.359,0.521,3.181,0.954,3.181,0.954l0.334-1.096c0,0-1.939-0.417-3.362-1.05L116.631,7.655z
				"/>
		</g>
		<path class="st0" d="M114.473,9.75c0,0,0.283-0.588,2.228-1.164c1.507-0.446,3.446-1.073,3.446-1.073s-0.017,0.731-0.216,1.158
			c-0.187,0.4-4.951,1.504-5.647,2.093L114.473,9.75z"/>
		<path class="st0" d="M114.283,10.764c0.312-0.265,1.446-0.633,2.617-0.995l0.338-1.344c-0.183,0.055-0.364,0.11-0.538,0.161
			c-1.945,0.576-2.228,1.164-2.228,1.164L114.283,10.764z"/>
		<path class="st5" d="M119.201,14.083c0,0-4.477-3.118-4.711-4.36c0,0-0.404,0.709-0.127,1.499
			c0.278,0.793,4.504,3.957,4.504,3.957L119.201,14.083z"/>
		<g>
			<path class="st5" d="M114.989,11.989l0.432-0.963c-0.502-0.504-0.869-0.971-0.931-1.302c0,0-0.404,0.709-0.127,1.499
				C114.421,11.39,114.656,11.663,114.989,11.989z"/>
		</g>
	</g>
	<g>
		<path class="st5" d="M120.216,62.679c0.461-0.9,1.231-2.02,1.149-3.081c-0.076-0.979-0.743-1.852-1.697-2.109
			c-0.14-0.038-0.815,1.976-0.924,1.947c0.629,0.169,1.123,0.583,1.422,1.162c0.141,0.272,0.233,0.566,0.266,0.871
			c0.017,0.151,0.019,0.301,0.005,0.453c-0.005,0.075-0.015,0.15-0.031,0.224c-0.175,0.681,0.056,0.232,0.696-1.347
			C120.807,61.376,120.449,62.225,120.216,62.679L120.216,62.679z"/>
	</g>
	<g>
		<path class="st5" d="M126.349,26.241c-0.243-0.639-0.267-1.312-0.053-1.965c0.097-0.296,0.273-0.536,0.404-0.811
			c0.055-0.084,0.116-0.164,0.182-0.24c-0.338,0.3-0.676,0.601-1.014,0.901c0.152-0.017,0.393-0.21,0.538-0.269
			c0.632-0.255,0.989-1.181,1.611-1.432c-0.979,0.395-1.879,1.318-2.598,2.069c-0.815,0.851-1.102,2.073-0.681,3.179
			C124.653,27.448,126.445,26.494,126.349,26.241L126.349,26.241z"/>
	</g>
	<g>
		<path class="st0" d="M117.198,93.779c0.654-2.362,0.434-5.106-1.603-6.719c0.2,0.158-0.337,1.262-0.123,1.432
			c0.64,0.507,1.149,1.128,1.484,1.875c0.146,0.327,0.258,0.672,0.334,1.022c0.107,0.497,0.104,0.695,0.031,0.958
			C117.195,92.803,117.324,93.328,117.198,93.779L117.198,93.779z"/>
	</g>
	<g>
		<path class="st6" d="M139.616,7.102c-2.341-1.311-5.846,0.505-6.419,3.082c0.072-0.322,1.141-0.429,1.216-0.766
			c0.103-0.461,0.257-0.888,0.52-1.286c0.121-0.183,0.355-0.352,0.442-0.539c0.145-0.126,0.13-0.134-0.047-0.024
			c-0.238,0.116-0.191,0.104,0.139-0.036c1.044-0.267,1.981-0.199,2.933,0.334C138.607,7.985,139.424,6.995,139.616,7.102
			L139.616,7.102z"/>
	</g>
	<g>
		<path class="st6" d="M119.339,83.68c-0.734-0.094-0.881,1.046-0.147,1.14C119.926,84.914,120.074,83.774,119.339,83.68
			L119.339,83.68z"/>
	</g>
	<g>
		<path class="st5" d="M129.29,76.461c-1.467-0.189-1.763,2.091-0.293,2.28C130.464,78.93,130.76,76.65,129.29,76.461L129.29,76.461
			z"/>
	</g>
	<g>
		<path class="st0" d="M125.798,15.004c-0.734-0.094-0.881,1.046-0.147,1.14C126.386,16.238,126.533,15.098,125.798,15.004
			L125.798,15.004z"/>
	</g>
	<g>
		<path class="st0" d="M135.923,41.384c-0.734-0.094-0.881,1.046-0.147,1.14C136.51,42.619,136.658,41.479,135.923,41.384
			L135.923,41.384z"/>
	</g>
	<g>
		<path class="st5" d="M128.673,55.713c-0.734-0.094-0.881,1.046-0.147,1.14C129.26,56.947,129.408,55.807,128.673,55.713
			L128.673,55.713z"/>
	</g>
	<g>
		<path class="st5" d="M110.407,67.08c-0.734-0.094-0.881,1.046-0.147,1.14C110.994,68.314,111.141,67.174,110.407,67.08
			L110.407,67.08z"/>
	</g>
	<g>
		<path class="st0" d="M108.889,59.351c-0.734-0.094-0.881,1.046-0.147,1.14C109.476,60.586,109.624,59.446,108.889,59.351
			L108.889,59.351z"/>
	</g>
	<g>
		<path class="st0" d="M109.403,82.404c0.063,0.008,0.127,0.016,0.19,0.024c0.298,0.038,0.618-0.187,0.643-0.497
			c0.026-0.311-0.177-0.602-0.497-0.643c-0.063-0.008-0.127-0.016-0.19-0.024c-0.298-0.038-0.618,0.187-0.643,0.497
			C108.88,82.071,109.083,82.363,109.403,82.404L109.403,82.404z"/>
	</g>
	<g>
		<path class="st6" d="M147.893,25.875c-0.51-3.09-2.656-5.766-5.62-6.83c-2.663-0.956-7.579-1.193-7.57-5.076
			c0,0.139-1.024,0.743-1.162,0.845c-0.161,0.119-1.145,0.664-1.145,0.868c-0.01,3.884,4.907,4.12,7.57,5.076
			c2.964,1.064,5.11,3.74,5.62,6.83c-0.015-0.089,1.05-0.762,1.162-0.845C146.875,26.649,147.917,26.023,147.893,25.875
			L147.893,25.875z"/>
		<path class="st7" d="M138.68,18.036c-1.05,0.398-2.048,0.978-2.865,1.529c1.417,0.5,2.995,0.78,4.15,1.194
			c1.641,0.589,3.029,1.673,4.03,3.047c0.451-0.952,0.874-2.209,0.723-3.38c-0.725-0.585-1.547-1.058-2.445-1.38
			C141.267,18.685,139.941,18.427,138.68,18.036z"/>
	</g>
	<g>
		<path class="st5" d="M123.614,56.842c0.2-3.003,3.677-4.54,6.243-3.677c-0.162-0.054,0.325-2.087,0.134-2.151
			c-1.6-0.538-3.399-0.282-4.688,0.852c-1.169,1.028-1.541,2.399-1.641,3.89c-0.033,0.489-0.081,0.981-0.088,1.472
			C123.57,57.602,123.61,56.909,123.614,56.842L123.614,56.842z"/>
		<path class="st5" d="M125.304,51.865c-1.169,1.028-1.541,2.399-1.641,3.89c-0.033,0.489-0.081,0.981-0.088,1.472
			c-0.006,0.376,0.034-0.317,0.039-0.385c0.081-1.221,0.704-2.199,1.587-2.873l0.688-2.536
			C125.686,51.559,125.489,51.702,125.304,51.865z"/>
	</g>
	<g>
		<path class="st0" d="M125.62,83.514c-0.374-1.036-1.248-1.778-2.331-1.978c-0.187-0.035-0.607,1.241-0.775,1.21
			c1.083,0.2,1.957,0.942,2.331,1.978c-0.024-0.067,0.346-0.527,0.394-0.601C125.293,84.037,125.655,83.612,125.62,83.514
			L125.62,83.514z"/>
	</g>
	<g>
		<path class="st5" d="M116.654,36.982c1.337-1.04,2.207-3.003,2.667-4.605c0.714-2.489-0.221-5.012-1.101-7.327
			c0.049,0.129-0.399,0.832-0.464,0.973c-0.076,0.164-0.511,0.806-0.445,0.982c0.616,1.622,1.248,3.281,1.345,5.032
			c0.042,0.752-0.107,1.422-0.204,2.157c-0.163,0.508-0.08,0.376,0.247-0.394c-0.099,0.158-0.207,0.31-0.324,0.456
			c-0.239,0.295-0.512,0.54-0.811,0.773C117.053,35.424,117.152,36.594,116.654,36.982L116.654,36.982z"/>
		<path class="st5" d="M117.563,35.027c-0.51,0.397-0.411,1.567-0.909,1.954c0.636-0.495,1.165-1.2,1.596-1.974
			c0.135-0.481,0.201-0.814,0.201-0.814l-0.027-0.006c-0.017,0.022-0.033,0.045-0.051,0.068
			C118.135,34.55,117.862,34.795,117.563,35.027z"/>
	</g>
	<g>
		<path class="st5" d="M132.832,48.907c-1.467-0.189-1.763,2.091-0.293,2.28C134.006,51.376,134.301,49.096,132.832,48.907
			L132.832,48.907z"/>
	</g>
	<g>
		<path class="st5" d="M112.194,14.561c-1.467-0.189-1.763,2.091-0.293,2.28C113.368,17.03,113.663,14.75,112.194,14.561
			L112.194,14.561z"/>
	</g>
	<g>
		<path class="st6" d="M125.206,2.752c-0.367-0.047-0.441,0.523-0.073,0.57C125.499,3.369,125.573,2.799,125.206,2.752
			L125.206,2.752z"/>
	</g>
	<g>
		<path class="st6" d="M106.629,12.166c-0.367-0.047-0.441,0.523-0.073,0.57C106.922,12.783,106.996,12.213,106.629,12.166
			L106.629,12.166z"/>
	</g>
	<g>
		<path class="st6" d="M137.622,79.27c-0.005,0.042-0.011,0.084-0.016,0.127c-0.019,0.149,0.094,0.309,0.248,0.322
			c0.155,0.013,0.301-0.089,0.322-0.248c0.005-0.042,0.011-0.084,0.016-0.127c0.019-0.149-0.094-0.309-0.248-0.322
			C137.788,79.009,137.642,79.11,137.622,79.27L137.622,79.27z"/>
	</g>
	<g>
		<path class="st6" d="M145.742,78.962c0.042,0.005,0.084,0.011,0.127,0.016c0.149,0.019,0.309-0.094,0.322-0.248
			c0.013-0.155-0.089-0.301-0.248-0.322c-0.042-0.005-0.084-0.011-0.127-0.016c-0.149-0.019-0.309,0.094-0.322,0.248
			C145.481,78.795,145.582,78.941,145.742,78.962L145.742,78.962z"/>
	</g>
	<g>
		<path class="st6" d="M145.922,60.28c-0.367-0.047-0.441,0.523-0.073,0.57C146.215,60.897,146.289,60.327,145.922,60.28
			L145.922,60.28z"/>
	</g>
	<g>
		<path class="st6" d="M139.964,60.138c0.048-0.037,0.095-0.074,0.143-0.11c0.123-0.095,0.147-0.28,0.052-0.403
			c-0.095-0.123-0.28-0.147-0.403-0.052c-0.048,0.037-0.095,0.074-0.143,0.11c-0.123,0.095-0.147,0.28-0.052,0.403
			C139.656,60.209,139.84,60.233,139.964,60.138L139.964,60.138z"/>
	</g>
	<g>
		<path class="st6" d="M131.719,71.59c-0.367-0.047-0.441,0.523-0.073,0.57C132.013,72.207,132.087,71.637,131.719,71.59
			L131.719,71.59z"/>
	</g>
	<g>
		<path class="st6" d="M128.105,67.648c-0.367-0.047-0.441,0.523-0.073,0.57C128.398,68.265,128.472,67.695,128.105,67.648
			L128.105,67.648z"/>
	</g>
	<g>
		<path class="st6" d="M112.195,44.902c-0.005,0.042-0.011,0.084-0.016,0.127c-0.019,0.149,0.094,0.309,0.248,0.322
			c0.155,0.013,0.301-0.089,0.322-0.248c0.005-0.042,0.011-0.084,0.016-0.127c0.019-0.149-0.094-0.309-0.248-0.322
			C112.361,44.641,112.215,44.743,112.195,44.902L112.195,44.902z"/>
	</g>
	<g>
		<path class="st6" d="M113.213,40.236c-0.367-0.047-0.441,0.523-0.073,0.57C113.506,40.853,113.58,40.283,113.213,40.236
			L113.213,40.236z"/>
	</g>
	<g>
		<path class="st6" d="M123.493,45.421c-0.367-0.047-0.441,0.523-0.073,0.57C123.786,46.038,123.86,45.468,123.493,45.421
			L123.493,45.421z"/>
	</g>
	<g>
		<path class="st5" d="M140.459,45.67c-0.367-0.047-0.441,0.523-0.073,0.57C140.753,46.287,140.827,45.717,140.459,45.67
			L140.459,45.67z"/>
	</g>
	<g>
		<path class="st5" d="M140.74,42.486c-0.367-0.047-0.441,0.523-0.073,0.57C141.033,43.104,141.107,42.534,140.74,42.486
			L140.74,42.486z"/>
	</g>
	<g>
		<path class="st5" d="M145.305,15.229c-0.005,0.042-0.011,0.084-0.016,0.127c-0.019,0.149,0.094,0.309,0.248,0.322
			c0.155,0.013,0.301-0.089,0.322-0.248c0.005-0.042,0.011-0.084,0.016-0.127c0.019-0.149-0.094-0.309-0.248-0.322
			C145.472,14.967,145.326,15.069,145.305,15.229L145.305,15.229z"/>
	</g>
	<g>
		<path class="st5" d="M137.331,36.446c-0.367-0.047-0.441,0.523-0.073,0.57C137.624,37.064,137.698,36.494,137.331,36.446
			L137.331,36.446z"/>
	</g>
</g>
</svg>
