<?xml version="1.0" encoding="utf-8"?>
<!-- Generator: Adobe Illustrator 24.0.3, SVG Export Plug-In . SVG Version: 6.00 Build 0)  -->
<svg version="1.1" id="Capa_1" xmlns="http://www.w3.org/2000/svg" xmlns:xlink="http://www.w3.org/1999/xlink" x="0px" y="0px"
	 width="100px" height="20.2px" viewBox="0 0 100 20.2" style="enable-background:new 0 0 100 20.2;" xml:space="preserve">
<style type="text/css">
	.st0{fill:#E30613;}
	.st1{fill:#FFFFFF;}
	.st2{fill-rule:evenodd;clip-rule:evenodd;fill:#004177;}
	.st3{fill:#004177;}
	.st4{clip-path:url(#SVGID_2_);fill-rule:evenodd;clip-rule:evenodd;fill:#DD2818;}
	.st5{clip-path:url(#SVGID_4_);fill-rule:evenodd;clip-rule:evenodd;fill:#DD2818;}
	.st6{fill-rule:evenodd;clip-rule:evenodd;fill:#003B75;}
	.st7{fill:none;stroke:#FFFFFF;stroke-width:3;stroke-miterlimit:10;}
	.st8{fill-rule:evenodd;clip-rule:evenodd;fill:#FFFFFF;}
	.st9{fill-rule:evenodd;clip-rule:evenodd;fill:#18346D;}
	.st10{fill-rule:evenodd;clip-rule:evenodd;fill:#BB2E2D;}
	.st11{fill:#18346D;}
	.st12{clip-path:url(#SVGID_6_);fill:#FFFFFF;}
	.st13{fill:#104B9D;}
	.st14{fill:#DE1E2D;}
	.st15{fill-rule:evenodd;clip-rule:evenodd;fill:#DF050B;}
	.st16{fill-rule:evenodd;clip-rule:evenodd;fill:#FEFEFE;}
	.st17{fill-rule:evenodd;clip-rule:evenodd;fill:#004D97;}
	.st18{fill:#009A49;}
	.st19{fill:#352B6B;}
	.st20{fill:#372F8F;}
	.st21{fill:#E9292B;}
	.st22{fill:none;stroke:#372F8F;stroke-width:3.199;stroke-miterlimit:3.8637;}
	.st23{fill:#FFD300;}
	.st24{fill:#1D1D1B;}
	.st25{fill:#D50C1F;}
	.st26{clip-path:url(#SVGID_8_);fill:none;stroke:#D50C1F;stroke-width:0.21;stroke-miterlimit:10;}
	.st27{fill:#0A1119;}
</style>
<g id="g300">
	<path id="path310" class="st0" d="M265.6,115.9h-100V82.6h100V115.9z"/>
	<g id="g312" transform="translate(404.711,35.0734)">
		<path id="path314" class="st1" d="M-151.1,77.3h-3.2l2.5-6.3h3.2L-151.1,77.3z M-202.7,77.3h-3.2l2.5-6.3h3.2L-202.7,77.3z
			 M-146.2,77.1l3.6-9.9h-9.7c-3,0.1-4,3.4-4,3.4l-2.4,6.5h-5.1l2.4-6.8h2.9l1.1-3.3h-2.7l1.8-4.7h-4.6l-2,4.8h-2.9l-1.2,3.3h3
			l-2.6,6.7h-5.1l3.6-10h-4.5l-4,10.1l-4,0l-1-3.7l6.5-6.3h-5.4l-5.1,4.9l3.4-9.8h-4.5l-5.7,14.8h-3.7l3.5-9.9h-9.9
			c-2.6,0-3.7,2.8-3.7,2.8l-2.9,7.1h-3.7l3.6-9.9h-7.9l0.9-2.5h-7.8l0.8-2.4h-14.4v4.1h8.2l-5.4,14.3h4.7l4.6-12.1h3.1l-4.3,12.1
			h4.7l3.7-9.8h3.4l-3.8,9.8h6.3c0.2-0.1,1.3-1,3.2-2.3c0,0,0.4,1.7,1.8,2.3h3.3c0.1-0.1,0.5-0.5,2.8-2.4c0,0,0.1,1.6,1.7,2.4h4
			c0.1-0.1,0.7-0.8,2.6-2.3l-0.9,2.3h4.7l2.6-6.9l2.1,6.9h4.9l2.4-2.3c0.4,1.9,1.8,2.3,2.2,2.3h5.3l2.5-2.3c0.2,1.5,1.8,2.2,2.1,2.3
			h5.3l2.4-2.3c0.3,2,2.3,2.3,2.3,2.3h3.2l2.3-2.3c0.4,2,2.6,2.3,2.6,2.3h9.4v-3.7L-146.2,77.1L-146.2,77.1L-146.2,77.1z
			 M-168.4,62.4h-4.5l-1.3,3.7h4.5L-168.4,62.4z"/>
	</g>
</g>
<g>
	<path class="st2" d="M254.5,171.6l0.3,0c0.2,0,0.3,0,0.4-0.1c0.1-0.1,0.1-0.1,0.1-0.2c0-0.1,0-0.2-0.1-0.2
		c-0.1-0.1-0.2-0.1-0.4-0.1l-0.3,0L254.5,171.6z M253.8,170.5l1.1,0c0.3,0,0.6,0.1,0.7,0.2c0.1,0.1,0.2,0.3,0.2,0.5
		c0,0.2,0,0.3-0.2,0.4c-0.1,0.1-0.3,0.2-0.5,0.3c0.1,0,0.2,0.1,0.2,0.1c0.1,0.1,0.1,0.1,0.2,0.2l0.4,0.7l-0.7,0
		c-0.2-0.5-0.4-0.8-0.5-0.9c-0.1-0.1-0.2-0.1-0.2-0.1c0,0,0,0-0.1,0l0,1l-0.6,0L253.8,170.5z M256.8,171.8c0-0.5-0.2-1-0.6-1.3
		c-0.4-0.4-0.8-0.6-1.3-0.6c-0.5,0-1,0.2-1.3,0.6c-0.4,0.4-0.5,0.8-0.5,1.3s0.2,1,0.6,1.3c0.4,0.4,0.8,0.6,1.4,0.5
		c0.5,0,1-0.2,1.3-0.6C256.6,172.8,256.8,172.3,256.8,171.8 M257.3,171.8c0,0.4-0.1,0.8-0.3,1.2c-0.2,0.4-0.5,0.7-0.9,0.9
		c-0.4,0.2-0.8,0.3-1.2,0.3c-0.4,0-0.8-0.1-1.2-0.3c-0.4-0.2-0.7-0.5-0.9-0.9c-0.2-0.4-0.3-0.8-0.3-1.2c0-0.4,0.1-0.8,0.3-1.2
		c0.2-0.4,0.5-0.7,0.9-0.9c0.4-0.2,0.8-0.3,1.2-0.3c0.4,0,0.8,0.1,1.2,0.3c0.4,0.2,0.7,0.5,0.9,0.9
		C257.2,171,257.3,171.4,257.3,171.8"/>
	<path class="st1" d="M218.6,135.4l44.6,21.8c1.9,0.9,2.6,4.1,0.3,5.5L218.8,185c-1.8,0.9-4.4,0.9-6.2,0l-44.8-21.8
		c-2.2-1.5-2.2-4.3,0-5.5l44.5-22.2C214.1,134.5,216.8,134.5,218.6,135.4"/>
	<path class="st1" d="M215.6,186.3c-1.2,0-2.4-0.3-3.3-0.7l-44.8-21.9l0,0c-1.3-0.8-2-2.1-1.9-3.5c0.1-1.3,0.8-2.4,2-3.1l0,0
		l44.5-22.2c1-0.5,2.2-0.7,3.4-0.7c1.2,0,2.4,0.3,3.3,0.7l44.6,21.8c1.2,0.5,2,1.8,2.1,3.2c0.1,1.4-0.6,2.7-1.8,3.4l0,0L219,185.5
		C218.1,186,216.9,186.3,215.6,186.3 M168.1,162.6l44.7,21.8c0.8,0.4,1.8,0.6,2.8,0.6c1.1,0,2.1-0.2,2.8-0.6l44.7-22.3
		c0.8-0.5,1.2-1.3,1.1-2.2c-0.1-0.9-0.6-1.8-1.4-2.1l0,0l-44.6-21.8c-0.8-0.4-1.8-0.6-2.8-0.6c-1.1,0-2.1,0.2-2.8,0.6l-44.5,22.2
		c-0.8,0.4-1.3,1.2-1.3,2.1C166.8,161.1,167.3,162,168.1,162.6"/>
	<path class="st3" d="M218.5,135.5l44.5,21.7c2.2,1.1,2.5,4.3,0.2,5.4l-44.5,22.2c-1.8,0.9-4.4,0.9-6.2,0l-44.1-21.5
		c-2.8-1.4-2.8-4.5-0.3-5.8l44.2-22C214.2,134.7,216.8,134.7,218.5,135.5"/>
	<path class="st1" d="M218.4,136.3l43.6,21.3c2.4,1.2,2.4,3.5,0,4.7L218.6,184c-1.7,0.8-4.2,0.9-5.9,0L169,162.7
		c-2.4-1.1-2.4-3.5,0-4.7l43.5-21.7C214.2,135.5,216.7,135.5,218.4,136.3"/>
	<g>
		<g>
			<g>
				<defs>
					<path id="SVGID_1_" d="M215.5,135.7c-1.1,0-2.1,0.2-3,0.6L169,158c-2.4,1.2-2.3,3.5,0,4.7l43.6,21.3c1.7,0.8,4.2,0.8,5.9,0
						l43.5-21.7c2.4-1.2,2.3-3.5,0-4.7l-43.6-21.3C217.6,135.9,216.6,135.7,215.5,135.7L215.5,135.7L215.5,135.7z"/>
				</defs>
				<clipPath id="SVGID_2_">
					<use xlink:href="#SVGID_1_"  style="overflow:visible;"/>
				</clipPath>
				<polygon class="st4" points="184.8,128.2 248,128 248.2,147.2 184.9,147.2 				"/>
			</g>
		</g>
		<g>
			<g>
				<defs>
					<path id="SVGID_3_" d="M215.5,135.7c-1.1,0-2.1,0.2-3,0.6L169,158c-2.4,1.2-2.3,3.5,0,4.7l43.6,21.3c1.7,0.8,4.2,0.8,5.9,0
						l43.5-21.7c2.4-1.2,2.3-3.5,0-4.7l-43.6-21.3C217.6,135.9,216.6,135.7,215.5,135.7L215.5,135.7L215.5,135.7z"/>
				</defs>
				<clipPath id="SVGID_4_">
					<use xlink:href="#SVGID_3_"  style="overflow:visible;"/>
				</clipPath>
				<polygon class="st5" points="184.3,173.5 247.5,173.5 247.6,192.3 184.4,192.6 				"/>
			</g>
		</g>
	</g>
	<polygon class="st6" points="202.9,152.6 209.9,152.6 214.9,161.5 219.9,152.5 226.7,152.5 218,168.3 211.7,168.3 	"/>
	<path class="st6" d="M233.1,157.1l7.4,0c0.8,0,3.3,0.4,3.3,3.2c0,2.4-2,3.4-3.2,3.4l-7.5,0L233.1,157.1z M227.2,152.5l15.1-0.1
		c3.2,0,7.5,3.1,7.5,7.8c0,5.9-5.2,7.7-7.5,7.7l-9.2,0l0,3.8l-5.8,0L227.2,152.5z"/>
	<path class="st6" d="M196.7,163.9l-7.4,0c-0.8,0-3.3-0.6-3.3-3.4c0-2.4,2-3.2,3.2-3.2l7.5,0L196.7,163.9z M202.6,168.3l-15.1,0.1
		c-3.2,0-7.5-3.1-7.5-7.8c0-5.9,5.2-7.9,7.5-7.9l9.2,0l0-3.6l5.8,0L202.6,168.3z"/>
</g>
<g>
	<path class="st7" d="M180.9,191.8h69.3c7.6,0,13.7,6.1,13.7,13.7v41c0,7.6-6.1,13.7-13.7,13.7h-69.3c-7.6,0-13.7-6.1-13.7-13.7v-41
		C167.2,197.9,173.4,191.8,180.9,191.8z"/>
	<path class="st8" d="M180.9,191.8h69.3c7.6,0,13.7,6.1,13.7,13.7v41c0,7.6-6.1,13.7-13.7,13.7h-69.3c-7.6,0-13.7-6.1-13.7-13.7v-41
		C167.2,197.9,173.4,191.8,180.9,191.8"/>
	<path class="st9" d="M216.5,191.8h-35.5c-7.6,0-13.7,6.1-13.7,13.7v41c0,7.6,6.1,13.7,13.7,13.7h35.5V191.8z"/>
	<rect x="182" y="237.7" class="st1" width="68.5" height="16"/>
	<path class="st10" d="M263.9,246.5V246l-14.2,14.2h0.5c3.2,0,6.2-1.1,8.5-3l2.2-2.2C262.8,252.6,263.9,249.7,263.9,246.5"/>
	<path class="st9" d="M186,249v-6.8h2.6c0.5,0,0.9,0.1,1.2,0.3c0.3,0.2,0.5,0.4,0.7,0.8c0.1,0.3,0.2,0.6,0.2,1
		c0,0.7-0.2,1.2-0.7,1.6c-0.4,0.3-1,0.5-1.7,0.5h-0.8v2.7H186z M187.5,243.2v2.1h0.7c0.3,0,0.5-0.1,0.7-0.3c0.2-0.2,0.3-0.4,0.3-0.8
		c0-0.3-0.1-0.6-0.2-0.8c-0.2-0.2-0.4-0.3-0.8-0.3L187.5,243.2L187.5,243.2z"/>
	<path class="st9" d="M191.3,242.2h1.5v4.8c0,0.4,0.1,0.6,0.2,0.8c0.1,0.2,0.4,0.3,0.7,0.3c0.3,0,0.6-0.1,0.7-0.3
		c0.1-0.2,0.2-0.5,0.2-0.8v-4.8h1.5v4.8c0,0.6-0.1,1-0.3,1.3c-0.2,0.3-0.5,0.5-0.9,0.7c-0.4,0.1-0.7,0.2-1.2,0.2
		c-0.4,0-0.8,0-1.2-0.2c-0.4-0.1-0.6-0.3-0.9-0.6c-0.2-0.3-0.3-0.8-0.3-1.4L191.3,242.2L191.3,242.2z"/>
	<path class="st9" d="M198.6,243.2v2h0.6c0.4,0,0.6-0.1,0.8-0.2c0.2-0.2,0.3-0.4,0.3-0.8c0-0.6-0.4-0.9-1.1-0.9L198.6,243.2
		L198.6,243.2L198.6,243.2z M197.1,249v-6.8h2.8c0.6,0,1.1,0.1,1.5,0.4c0.4,0.3,0.5,0.7,0.5,1.3c0,0.5-0.1,0.8-0.3,1.1
		c-0.2,0.3-0.5,0.5-0.9,0.6v0c0.3,0,0.6,0.1,0.8,0.3c0.2,0.1,0.3,0.4,0.3,0.7c0.1,0.3,0.1,0.7,0.1,1.2c0,0.4,0,0.6,0.1,0.8
		c0,0.2,0.1,0.3,0.3,0.4v0.1h-1.6c-0.1-0.1-0.1-0.2-0.1-0.3c0-0.1,0-0.3,0-0.4l0-1.3c0-0.3-0.1-0.5-0.2-0.6
		c-0.1-0.1-0.4-0.2-0.7-0.2h-0.8v2.9H197.1z"/>
	<path class="st9" d="M202.4,249l2-6.8h1.9l2,6.8h-1.6l-0.4-1.5h-2L204,249H202.4z M205.3,243.4l-0.7,3.1h1.5L205.3,243.4
		L205.3,243.4z"/>
	<path class="st9" d="M211.3,249v-6.8h2.7c0.5,0,0.9,0.1,1.2,0.3c0.3,0.2,0.5,0.4,0.7,0.8c0.1,0.3,0.2,0.6,0.2,1
		c0,0.7-0.2,1.2-0.7,1.6c-0.4,0.3-1,0.5-1.7,0.5h-0.8v2.7H211.3z M212.8,243.2v2.1h0.7c0.3,0,0.5-0.1,0.7-0.3
		c0.2-0.2,0.3-0.4,0.3-0.8c0-0.3-0.1-0.6-0.2-0.8c-0.2-0.2-0.4-0.3-0.8-0.3L212.8,243.2L212.8,243.2L212.8,243.2z"/>
	<rect x="216.9" y="242.2" class="st9" width="1.5" height="6.8"/>
	<polygon class="st9" points="219.5,242.2 221.2,242.2 223.1,246.9 223.1,246.9 223.1,242.2 224.5,242.2 224.5,249 222.8,249 
		220.9,244.2 220.9,244.2 220.9,249 219.5,249 	"/>
	<polygon class="st9" points="225.1,242.2 229.9,242.2 229.9,243.3 228.3,243.3 228.3,249 226.8,249 226.8,243.3 225.1,243.3 	"/>
	<path class="st9" d="M230.5,242.2h1.5v4.8c0,0.4,0.1,0.6,0.2,0.8c0.1,0.2,0.4,0.3,0.7,0.3c0.3,0,0.6-0.1,0.7-0.3
		c0.1-0.2,0.2-0.5,0.2-0.8v-4.8h1.5v4.8c0,0.6-0.1,1-0.4,1.3c-0.2,0.3-0.5,0.5-0.9,0.7c-0.4,0.1-0.8,0.2-1.2,0.2
		c-0.4,0-0.8,0-1.2-0.2c-0.4-0.1-0.7-0.3-0.9-0.6c-0.2-0.3-0.3-0.8-0.3-1.4L230.5,242.2L230.5,242.2z"/>
	<path class="st9" d="M237.8,243.2v2h0.6c0.4,0,0.6-0.1,0.8-0.2c0.2-0.2,0.3-0.4,0.3-0.8c0-0.6-0.4-0.9-1.1-0.9L237.8,243.2
		L237.8,243.2z M236.3,249v-6.8h2.8c0.6,0,1.1,0.1,1.5,0.4c0.3,0.3,0.5,0.7,0.5,1.3c0,0.5-0.1,0.8-0.3,1.1c-0.2,0.3-0.5,0.5-0.9,0.6
		v0c0.3,0,0.6,0.1,0.8,0.3c0.2,0.1,0.3,0.4,0.4,0.7c0.1,0.3,0.1,0.7,0.1,1.2c0,0.4,0,0.6,0.1,0.8c0,0.2,0.1,0.3,0.3,0.4v0.1h-1.6
		c-0.1-0.1-0.1-0.2-0.1-0.3c0-0.1,0-0.3,0-0.4l0-1.3c0-0.3-0.1-0.5-0.2-0.6c-0.1-0.1-0.4-0.2-0.7-0.2h-0.8v2.9H236.3z"/>
	<path class="st9" d="M241.6,249l2-6.8h1.9l2,6.8h-1.6l-0.3-1.5h-2l-0.4,1.5H241.6z M244.5,243.4l-0.7,3.1h1.5L244.5,243.4
		L244.5,243.4z"/>
	<path class="st10" d="M218.2,201.8l10-9.9h-6l-5.6,5.6v4.3C217,201.7,217.6,201.8,218.2,201.8"/>
	<path class="st10" d="M229.2,202.8l11-11h-6l-10.3,10.3C225.7,202.3,227.5,202.5,229.2,202.8"/>
	<path class="st10" d="M238.5,205.4l13.4-13.4c-0.6-0.1-1.2-0.1-1.8-0.1h-4.1L234,203.9C235.6,204.3,237.1,204.8,238.5,205.4"/>
	<path class="st10" d="M246.2,209.8L260,196c-1-1-2.2-1.9-3.4-2.6l-13.9,13.9C244.1,208.1,245.2,208.9,246.2,209.8"/>
	<path class="st10" d="M249.4,215.8c0,1.7-0.7,3.2-1.9,4.7l16.4-16.4c-0.2-1.7-0.7-3.2-1.4-4.7l-13.7,13.7
		C249.2,214,249.4,214.8,249.4,215.8"/>
	<path class="st10" d="M218.4,237.7l8.6-8.6c-2.1,0.3-4.4,0.5-6.7,0.6l-3.8,3.8v4.1L218.4,237.7L218.4,237.7L218.4,237.7z"/>
	<path class="st10" d="M230.3,237.7l15.6-15.6c-2.6,2.2-6.6,4.1-11.5,5.5l-10.1,10.1L230.3,237.7L230.3,237.7z"/>
	<polygon class="st10" points="220.3,253.7 216.5,257.5 216.5,260.2 219.8,260.2 226.3,253.7 	"/>
	<polygon class="st10" points="236.3,237.7 242.3,237.7 263.9,216.1 263.9,210.1 	"/>
	<polygon class="st10" points="232.2,253.7 225.7,260.2 231.7,260.2 238.2,253.7 	"/>
	<polygon class="st10" points="248.2,237.7 250.5,237.7 250.5,241.4 263.9,228 263.9,222 	"/>
	<polygon class="st10" points="244.3,253.7 237.8,260.2 243.8,260.2 250.3,253.7 	"/>
	<polygon class="st10" points="250.5,247.4 250.5,253.5 263.9,240.1 263.9,234.1 	"/>
	<path class="st8" d="M183.4,215.8c0-7.7,14.8-14,33-14c18.2,0,33,6.3,33,14c0,7.8-14.8,14-33,14
		C198.2,229.8,183.4,223.5,183.4,215.8"/>
	<path class="st11" d="M216.4,230.5c-8.9,0-17.3-1.5-23.6-4.2c-6.5-2.8-10.1-6.5-10.1-10.6c0-4.1,3.6-7.8,10.1-10.6
		c6.3-2.7,14.7-4.2,23.6-4.2c8.9,0,17.3,1.5,23.6,4.2c6.5,2.8,10.1,6.5,10.1,10.6c0,4.1-3.6,7.8-10.1,10.6
		C233.7,229,225.3,230.5,216.4,230.5 M216.4,202.5c-8.7,0-16.9,1.4-23.1,4c-5.9,2.5-9.2,5.9-9.2,9.2c0,3.4,3.4,6.8,9.2,9.2
		c6.1,2.6,14.3,4,23.1,4c8.7,0,16.9-1.4,23.1-4c5.9-2.5,9.2-5.9,9.2-9.2c0-3.4-3.4-6.7-9.2-9.2C233.3,203.9,225.1,202.5,216.4,202.5
		"/>
	<rect x="211.8" y="212.5" class="st10" width="3.4" height="11.1"/>
	<polygon class="st10" points="211.9,209.4 213.6,208 215.3,209.5 213.7,210.8 	"/>
	<path class="st10" d="M200,208.1c0,0,2.6-0.9,5.6-3.2c0,0,3.3,0.8,3.7,0.8c0.5,0,0.4-0.3,0.6-0.3c0.4-0.1,0.8,0.4,0.8,0.4
		s-1.7,2.6-1.7,2.6c0,0.2-1.5,0.1-5.1-0.7c-0.1,0-0.6,0-0.8,0.8v5.1c0,0,0.9,1.2,3.1-1.2c0.1-0.1,3.3,1.4,3.3,1.4v8
		c0,0-1.7,0.1-4.2,2.7c0,0-3.2-1.1-4.4-0.7c-0.8,0.2-0.9-0.1-1.1,0.6c0,0.1-0.9,0.3-0.9-0.1c0-0.5,2.2-3.8,2.2-3.8l5.2,1.1v-5.8
		l-3.1,0.9l-3.3-2.3L200,208.1L200,208.1L200,208.1z"/>
	<path class="st10" d="M231.6,224h3.1v-11.1c0,0-1.2,0.1-4.1-0.8c-0.1,0-1.8,1.6-3.2,1.9c-0.4,0.1-0.1,2.3-0.1,2.3s0.8,0.3,0.8-0.3
		c0-1,1.2-1.2,1.9-1.3c1.4-0.2,2.7,1.8-0.1,2.4c-2,0.4-1.9,0.5-2.6,0.5c-0.3,0-3.4,5.5,2.7,6.3c0.9,0.1,0.5-0.5,1.7-0.8
		C231.6,223.2,231.6,224,231.6,224"/>
	<path class="st8" d="M231.5,221.2v-2.7c0,0-1.1,0.2-1.5,1.1C229.8,220,229.5,221.5,231.5,221.2"/>
	<path class="st10" d="M216.7,212.2V227h3.7v-2.8v-1.1c0,0,3.6,3,4.9-1.1c0-0.1,0-8.1,0-8.1s-1.7-0.2-2.8-1.7l-2.1,0.8v-0.8
		L216.7,212.2L216.7,212.2L216.7,212.2z"/>
	<path class="st8" d="M221.9,215.8v5.1c0,0.4-0.3,0.8-0.8,0.8c-0.4,0-0.8-0.3-0.8-0.7l0-5.1c0-0.4,0.3-0.8,0.8-0.8
		C221.5,215.1,221.9,215.4,221.9,215.8L221.9,215.8L221.9,215.8z"/>
</g>
<g>
	<g>
		<g>
			<g>
				<defs>
					<rect id="SVGID_5_" x="167.6" y="282.5" width="100" height="65.7"/>
				</defs>
				<clipPath id="SVGID_6_">
					<use xlink:href="#SVGID_5_"  style="overflow:visible;"/>
				</clipPath>
				<path class="st12" d="M181.5,282.5h76.6c0,0,10.3,0.1,9.5,12.4c0,0-0.2,1.6-0.5,3l-13.4,50.4h-76.4c0,0-10.2,0.3-9.7-12.3
					c0,0-0.1-0.7,0.5-3.1L181.5,282.5z"/>
			</g>
		</g>
	</g>
	<path class="st13" d="M257.3,284.9c5.9,0,9.2,5.7,7.3,12.8l-12.9,48.6h-74.4c-5.9,0-9.2-5.7-7.3-12.8l12.9-48.6L257.3,284.9z"/>
	<path class="st1" d="M177.2,322.4c-2.6-14.4,13.2-29.2,35.4-33s42.3,4.8,45,19.2c2.6,14.4-13.2,29.2-35.4,33
		S179.8,336.8,177.2,322.4"/>
	<path class="st14" d="M188.8,330.7l-1.9,0c-2.3,0-3.8-1.8-3.2-4l6.4-23.7c0.2-0.8,1-1.4,1.8-1.4h5.2c0.8,0,1.2,0.6,1,1.4l-5.6,20.7
		l7.5,0c0.8,0,1.2,0.6,1,1.4l-1.1,4.1c-0.2,0.8-1,1.4-1.8,1.4L188.8,330.7z"/>
	<path class="st14" d="M221.2,320.8c0.6-2.2,2.8-4,5-4s3.5,1.8,2.9,4c-0.6,2.2-2.8,4-5,4C221.9,324.8,220.6,323,221.2,320.8
		 M214.9,320.8c1.5-5.7,7.4-10.3,13.1-10.3c5.7,0,9.1,4.6,7.5,10.3c-1.5,5.7-7.4,10.3-13.1,10.3
		C216.7,331.1,213.4,326.5,214.9,320.8"/>
	<path class="st14" d="M247.5,300c2.5,0,4.1,1.9,3.5,4.4c-0.7,2.5-3.3,4.4-5.9,4.4c-2.5,0-4.1-1.9-3.5-4.4
		C242.3,301.9,244.9,300,247.5,300"/>
	<path class="st14" d="M240.1,312.3c0.2-0.8,1-1.4,1.8-1.4h5c0.8,0,1.2,0.6,1,1.4l-4.6,17c-0.2,0.8-1,1.4-1.8,1.4h-5
		c-0.8,0-1.2-0.6-1-1.4L240.1,312.3z"/>
	<path class="st14" d="M214.4,300c2.5,0,4.1,1.9,3.5,4.4s-3.3,4.4-5.9,4.4c-2.5,0-4.1-1.9-3.5-4.4C209.2,301.9,211.9,300,214.4,300"
		/>
	<path class="st14" d="M207,312.3c0.2-0.8,1-1.4,1.8-1.4h5c0.8,0,1.2,0.6,1,1.4l-4.6,17c-0.2,0.8-1,1.4-1.8,1.4h-5
		c-0.8,0-1.2-0.6-1-1.4L207,312.3z"/>
	<path class="st1" d="M222.6,318.5c0.9-1,1.9-1.6,3.7-1.6s2.9,1,3,2.4c0.2,3.7-3.3,5.3-5.1,5.5C222.3,325.1,219.3,322.4,222.6,318.5
		"/>
</g>
<g>
	<g transform="translate(42 .866)">
		<path class="st15" d="M270.2,100.3c0-11.1,9-20,20-20c11.1,0,20,9,20,20c0,11.1-9,20-20,20S270.2,111.4,270.2,100.3"/>
	</g>
	<path class="st16" d="M319.1,101.2c0-7.3,5.9-13.2,13.2-13.2c7.3,0,13.2,5.9,13.2,13.2c0,7.3-5.9,13.2-13.2,13.2
		C325,114.4,319.1,108.5,319.1,101.2"/>
	<path class="st17" d="M325.7,101.2c0-3.6,2.9-6.5,6.5-6.5c3.6,0,6.5,2.9,6.5,6.5c0,3.6-2.9,6.5-6.5,6.5
		C328.6,107.7,325.7,104.8,325.7,101.2"/>
	<path class="st17" d="M282.5,130v1.6h4.4v11.7h1.8v-11.7h4.4V130H282.5z M296.6,135.9h3.8c0.8,0,1.4-0.1,1.9-0.2
		c0.5-0.2,0.8-0.4,1-0.8c0.2-0.4,0.4-0.8,0.4-1.2c0-0.6-0.2-1.1-0.7-1.6c-0.5-0.4-1.2-0.6-2.2-0.6h-4.2V135.9z M294.8,143.3V130h5.9
		c1.2,0,2.1,0.1,2.7,0.4c0.6,0.2,1.1,0.7,1.5,1.3c0.4,0.6,0.6,1.3,0.6,2c0,0.9-0.3,1.7-0.9,2.4c-0.6,0.6-1.6,1.1-2.8,1.2
		c0.5,0.2,0.8,0.4,1.1,0.7c0.5,0.5,1,1.1,1.5,1.8l2.3,3.6h-2.2l-1.8-2.8c-0.5-0.8-0.9-1.4-1.3-1.8c-0.3-0.4-0.6-0.7-0.9-0.9
		c-0.3-0.2-0.5-0.3-0.8-0.4c-0.2,0-0.5-0.1-1-0.1h-2v5.9C296.6,143.3,294.8,143.3,294.8,143.3z M308.5,143.3h1.8V130h-1.8V143.3z"/>
	<g>
		<path class="st17" d="M322.8,138.7l1.8,0.4c-0.4,1.4-1,2.5-2,3.3c-1,0.8-2.1,1.1-3.5,1.1c-1.4,0-2.6-0.3-3.5-0.9
			c-0.9-0.6-1.6-1.4-2-2.5c-0.5-1.1-0.7-2.3-0.7-3.6c0-1.4,0.3-2.6,0.8-3.6c0.5-1,1.3-1.8,2.3-2.3c1-0.5,2.1-0.8,3.2-0.8
			c1.3,0,2.4,0.3,3.4,1c0.9,0.7,1.5,1.6,1.9,2.9l-1.7,0.4c-0.3-1-0.8-1.7-1.3-2.1c-0.6-0.4-1.3-0.7-2.2-0.7c-1,0-1.9,0.2-2.6,0.7
			c-0.7,0.5-1.2,1.1-1.4,2c-0.3,0.8-0.4,1.7-0.4,2.5c0,1.1,0.2,2.1,0.5,3c0.3,0.8,0.8,1.5,1.5,1.9c0.7,0.4,1.4,0.6,2.3,0.6
			c1,0,1.8-0.3,2.5-0.9C322.1,140.6,322.6,139.8,322.8,138.7 M328,136.9c0,1.6,0.4,2.9,1.3,3.8c0.9,0.9,1.9,1.4,3.2,1.4
			c1.3,0,2.4-0.5,3.3-1.4c0.9-0.9,1.3-2.2,1.3-4c0-1.1-0.2-2-0.6-2.8c-0.4-0.8-0.9-1.4-1.6-1.9c-0.7-0.4-1.5-0.7-2.4-0.7
			c-1.2,0-2.3,0.4-3.2,1.3C328.5,133.5,328,134.9,328,136.9 M326.2,136.8c0-2.2,0.6-3.9,1.8-5.2c1.2-1.2,2.7-1.9,4.6-1.9
			c1.2,0,2.3,0.3,3.3,0.9c1,0.6,1.7,1.4,2.2,2.5c0.5,1,0.8,2.2,0.8,3.6c0,1.3-0.3,2.6-0.8,3.6c-0.5,1.1-1.3,1.9-2.3,2.4
			c-1,0.5-2.1,0.8-3.2,0.8c-1.3,0-2.4-0.3-3.4-0.9c-1-0.6-1.7-1.4-2.2-2.5C326.5,139.1,326.2,138,326.2,136.8"/>
	</g>
	<path class="st17" d="M341.1,143.3V130h1.8v11.7h6.5v1.6L341.1,143.3L341.1,143.3z"/>
	<g>
		<path class="st17" d="M352.8,136.9c0,1.6,0.4,2.9,1.3,3.8c0.9,0.9,1.9,1.4,3.2,1.4c1.3,0,2.4-0.5,3.3-1.4c0.9-0.9,1.3-2.2,1.3-4
			c0-1.1-0.2-2-0.6-2.8c-0.4-0.8-0.9-1.4-1.6-1.9c-0.7-0.4-1.5-0.7-2.4-0.7c-1.2,0-2.3,0.4-3.2,1.3
			C353.2,133.5,352.8,134.9,352.8,136.9 M351,136.8c0-2.2,0.6-3.9,1.8-5.2c1.2-1.2,2.7-1.9,4.6-1.9c1.2,0,2.3,0.3,3.3,0.9
			c1,0.6,1.7,1.4,2.2,2.5c0.5,1,0.8,2.2,0.8,3.6c0,1.3-0.3,2.6-0.8,3.6c-0.5,1.1-1.3,1.9-2.3,2.4c-1,0.5-2.1,0.8-3.2,0.8
			c-1.2,0-2.4-0.3-3.4-0.9c-1-0.6-1.7-1.4-2.2-2.5C351.2,139.1,351,138,351,136.8 M367.7,135.9h3.8c0.8,0,1.4-0.1,1.9-0.2
			c0.5-0.2,0.8-0.4,1-0.8c0.2-0.4,0.4-0.8,0.4-1.2c0-0.6-0.2-1.1-0.7-1.6c-0.5-0.4-1.2-0.6-2.2-0.6h-4.2
			C367.7,131.5,367.7,135.9,367.7,135.9z M366,143.3V130h5.9c1.2,0,2.1,0.1,2.7,0.4c0.6,0.2,1.1,0.7,1.5,1.3c0.4,0.6,0.6,1.3,0.6,2
			c0,0.9-0.3,1.7-0.9,2.4c-0.6,0.6-1.6,1.1-2.8,1.2c0.5,0.2,0.8,0.4,1.1,0.7c0.5,0.5,1,1.1,1.5,1.8l2.3,3.6h-2.2l-1.8-2.8
			c-0.5-0.8-0.9-1.4-1.3-1.8c-0.3-0.4-0.6-0.7-0.9-0.9c-0.3-0.2-0.5-0.3-0.8-0.4c-0.2,0-0.5-0.1-1-0.1h-2v5.9L366,143.3L366,143.3z
			 M380,141.3h0.4c0.2,0,0.3,0,0.4-0.1c0.1-0.1,0.1-0.1,0.1-0.2c0-0.1,0-0.1-0.1-0.2c0-0.1-0.1-0.1-0.1-0.1c-0.1,0-0.2,0-0.3,0H380
			L380,141.3L380,141.3z M379.6,142.5v-2.1h0.7c0.2,0,0.4,0,0.5,0.1c0.1,0,0.2,0.1,0.3,0.2c0.1,0.1,0.1,0.2,0.1,0.3
			c0,0.2-0.1,0.3-0.2,0.4c-0.1,0.1-0.3,0.2-0.4,0.2c0.1,0,0.1,0.1,0.2,0.1c0.1,0.1,0.2,0.2,0.3,0.4l0.3,0.4H381l-0.2-0.3
			c-0.1-0.3-0.3-0.4-0.4-0.5c-0.1,0-0.2-0.1-0.3-0.1H380v0.9L379.6,142.5L379.6,142.5z M380.5,139.8c-0.3,0-0.5,0.1-0.8,0.2
			c-0.3,0.1-0.5,0.3-0.6,0.6c-0.1,0.3-0.2,0.5-0.2,0.8c0,0.3,0.1,0.6,0.2,0.8c0.1,0.3,0.3,0.5,0.6,0.6c0.3,0.1,0.5,0.2,0.8,0.2
			c0.3,0,0.6-0.1,0.8-0.2c0.3-0.1,0.5-0.3,0.6-0.6c0.1-0.3,0.2-0.5,0.2-0.8c0-0.3-0.1-0.6-0.2-0.8c-0.1-0.3-0.3-0.5-0.6-0.6
			C381,139.9,380.8,139.8,380.5,139.8L380.5,139.8z M380.5,139.5c0.3,0,0.6,0.1,1,0.3c0.3,0.2,0.6,0.4,0.7,0.7
			c0.2,0.3,0.3,0.6,0.3,1c0,0.3-0.1,0.7-0.3,1c-0.2,0.3-0.4,0.6-0.7,0.7c-0.3,0.2-0.6,0.3-1,0.3c-0.3,0-0.7-0.1-1-0.3
			c-0.3-0.2-0.5-0.4-0.7-0.7c-0.2-0.3-0.3-0.6-0.3-1c0-0.3,0.1-0.7,0.3-1c0.2-0.3,0.4-0.6,0.7-0.7
			C379.9,139.6,380.2,139.5,380.5,139.5z"/>
	</g>
</g>
<g>
	<path class="st18" d="M47.2,279.9c-1.1,0.8-2.6,1.3-4,1.3c-3.2,0-5-2.1-5-5.5c0-4.8,2.9-8.2,7.1-8.2c1.4,0,2.7,0.5,3.5,1.3l-1.7,2
		c-0.5-0.5-1.3-0.8-2.1-0.8c-2.2,0-3.6,2.2-3.6,5.6c0,2.1,0.8,3.2,2.2,3.2c0.9,0,1.8-0.3,2.4-0.8L47.2,279.9z"/>
	<path class="st18" d="M51.3,276.7c0.1,1.4,0.7,2.2,2.1,2.2c0.7,0,1.7-0.3,2.4-0.7l0.9,1.6c-1,0.8-2.7,1.3-4.2,1.3
		c-2.6,0-4.1-1.7-4.1-4.4c0-3.8,2.4-6.4,5.8-6.4c2.4,0,3.7,1.5,3.7,4c0,0.8-0.2,1.5-0.4,2.3C57.4,276.7,51.3,276.7,51.3,276.7z
		 M55,274.9c0-0.2,0-0.3,0-0.5c0-1.1-0.4-1.8-1.3-1.8c-1.2,0-2,1-2.3,2.3L55,274.9L55,274.9z"/>
	<path class="st18" d="M73.3,273.6l-1.2,7.3h-3l1.1-6.8c0.1-0.8-0.1-1.3-0.7-1.3c-0.6,0-1.2,0.4-1.6,1.1l-1.1,7h-3l1.1-6.8
		c0.2-0.8-0.1-1.3-0.6-1.3c-0.6,0-1.2,0.4-1.7,1.1l-1.1,7h-3l1.6-10.1h2.8l-0.2,1.2c0.7-0.9,2-1.5,3-1.5c1.1,0,1.9,0.6,2.1,1.6
		c0.7-1,2-1.6,3-1.6C72.8,270.4,73.6,271.6,73.3,273.6"/>
	<path class="st18" d="M77.6,276.7c0.1,1.4,0.7,2.2,2.1,2.2c0.7,0,1.7-0.3,2.4-0.7l0.9,1.6c-1,0.8-2.7,1.3-4.2,1.3
		c-2.6,0-4.1-1.7-4.1-4.4c0-3.8,2.4-6.4,5.8-6.4c2.4,0,3.7,1.5,3.7,4c0,0.8-0.2,1.5-0.4,2.3C83.7,276.7,77.6,276.7,77.6,276.7z
		 M81.3,274.9c0-0.2,0-0.3,0-0.5c0-1.1-0.4-1.8-1.3-1.8c-1.2,0-2,1-2.3,2.3L81.3,274.9L81.3,274.9z"/>
	<path class="st18" d="M94.7,273.6l-1.2,7.3h-3l1.1-6.8c0.1-0.8-0.2-1.3-0.8-1.3c-0.6,0-1.3,0.4-1.8,1.2l-1.1,6.9h-3l1.6-10.1h2.8
		l-0.2,1.2c0.8-1,2-1.5,3.1-1.5C94,270.4,95,271.7,94.7,273.6"/>
	<path class="st18" d="M96.5,277.9l0.8-5h-1.4l0.3-1.8l1-0.2c0.3-0.1,0.5-0.2,0.7-0.7l0.5-1.6h2.6l-0.3,2.2h2.4l-0.4,2.1h-2.4
		l-0.7,4.8c-0.1,0.8,0.2,1.1,0.8,1.1c0.4,0,0.9-0.1,1.5-0.3v2.2c-0.9,0.4-1.8,0.5-2.5,0.5C97.4,281.2,96.2,280.1,96.5,277.9"/>
	<path class="st18" d="M112.9,274.8c0,3.8-2.4,6.4-5.8,6.4c-2.6,0-4.1-1.7-4.1-4.4c0-3.8,2.4-6.4,5.8-6.4
		C111.4,270.4,112.9,272.1,112.9,274.8 M109.8,274.9c0-1.3-0.5-2.1-1.4-2.1c-1.5,0-2.4,1.7-2.4,3.9c0,1.4,0.5,2.2,1.4,2.2
		C108.9,278.9,109.8,277.2,109.8,274.9"/>
	<path class="st18" d="M118.9,274.7c1.3,0.4,2.9,0.8,2.9,2.7c0,2.3-2.1,3.8-5,3.8c-1.5,0-3.1-0.6-3.8-1.4l1.6-1.8
		c0.6,0.6,1.6,1,2.5,1c1,0,1.7-0.4,1.7-1.1c0-0.6-0.6-0.8-1.5-1.1c-1.2-0.4-2.9-0.9-2.9-2.8c0-2.2,1.8-3.6,4.6-3.6
		c1.3,0,2.8,0.4,3.7,1.2l-1.6,1.8c-0.5-0.4-1.4-0.7-2.2-0.7c-0.8,0-1.5,0.4-1.5,1C117.2,274.2,117.8,274.4,118.9,274.7"/>
	<path class="st18" d="M58.8,217.1H47c-4,0-8,0.7-10.6,3c-6.3,5.6-6.5,12.1-5.1,17.9c0,0,0,0.1,0,0.1c0,0.1,0.1,0.3,0.1,0.4
		c0.7,2.5,2.2,5.3,4.1,7.5c-0.1-1-0.1-2,0-3.2c0-0.6,0.1-1.3,0.2-2c0.5-4.4,1.9-7.8,3.7-10.2c1.2-1.5,2.7-3,4.6-4
		c1.9-1,4-1.1,4.6-1.1c0.9,0,1.8,0,2.6,0h6.6c0.7,0,1.2-0.5,1.3-1.1l0.8-6C60.2,217.8,59.6,217.1,58.8,217.1"/>
	<path class="st19" d="M124.2,235.1c-0.9-3.2-2.8-5.3-6-6.3c-1.4-0.4-2.8-0.7-4.2-0.8c-2-0.2-4.1,0-6.2,0.4c-0.6,0.1-1.3,0.3-2,0.5
		c0-0.3,0-0.4,0-0.6c0.4-3.3,0.8-6.7,1.3-10c0.1-1.1,0-1.2-1-1.2c-2.7,0-5.3,0-8,0c-1,0-1.1,0.1-1.2,1.1c-1.7,13.6-3.3,27.1-5,40.7
		h0l-0.3,2.6c0,0.3,0.2,0.6,0.6,0.6h14.2l0,0c2.3,0,4.5-0.3,6.8-0.9c2.9-0.8,5.5-2.3,7.4-4.8c2-2.5,2.8-5.4,3.3-8.4
		c0.3-2.2,0.6-4.4,0.8-6.7C124.8,239.3,124.7,237.2,124.2,235.1 M114.4,242.6c-0.1,1.6-0.3,3.1-0.6,4.7c-0.2,1.2-0.6,2.5-1,3.7
		c-0.8,2.1-2.5,3.1-4.7,3.2c-1.6,0.1-3.1,0-4.7,0c-0.8,0-0.9-0.1-0.8-0.9c0.3-2.7,1.6-13.1,1.9-15.7c0.1-0.9,0.2-1,1.1-1.2
		c2.1-0.6,4.1-0.6,6.1-0.4c1.6,0.2,2.6,1.4,2.7,3.2C114.6,240.3,114.5,241.5,114.4,242.6"/>
	<path class="st19" d="M90.5,235.1c-0.9-3.2-2.8-5.3-6-6.3c-1.4-0.4-2.8-0.7-4.2-0.8c-2-0.2-4.1,0-6.2,0.4c-0.6,0.1-1.3,0.3-2,0.5
		c0-0.3,0-0.4,0-0.6c0.4-3.3,0.8-6.7,1.3-10c0.1-1.1,0-1.2-1-1.2c-2.7,0-5.3,0-8,0c-1,0-1.1,0.1-1.2,1.1c-1.7,13.6-3.3,27.1-5,40.7
		h0l-0.3,2.6c0,0.3,0.2,0.6,0.6,0.6h14.2l0,0c2.3,0,4.5-0.3,6.8-0.9c2.9-0.8,5.5-2.3,7.4-4.8c2-2.5,2.8-5.4,3.3-8.4
		c0.3-2.2,0.6-4.4,0.8-6.7C91.1,239.3,91,237.2,90.5,235.1 M80.7,242.6c-0.1,1.6-0.3,3.1-0.6,4.7c-0.2,1.2-0.6,2.5-1,3.7
		c-0.8,2.1-2.5,3.1-4.7,3.2c-1.6,0.1-3.1,0-4.7,0c-0.8,0-0.9-0.1-0.8-0.9c0.3-2.7,1.6-13.1,1.9-15.7c0.1-0.9,0.2-1,1.1-1.2
		c2.1-0.6,4.1-0.6,6.1-0.4c1.6,0.2,2.6,1.4,2.7,3.2C80.9,240.3,80.8,241.5,80.7,242.6"/>
	<path class="st19" d="M55.2,250.1c-3.4,1.9-11.2,3.9-16.9,2.1c-3.8-1.2-6.4-3.5-8-6.4v0c-1.5-2.4-3-8.2-3.3-12.5
		c-2.2,5.7-3.5,12.7-0.2,20.6c2,5,7.1,7.8,10.5,8.2c6.7,0.8,13-0.5,17.3-2.2c0.3-0.1,0.5-0.4,0.5-0.7l0.1-0.8v0l0.4-3.4c0,0,0,0,0,0
		l0.5-4.3C56.2,250.2,55.6,249.8,55.2,250.1"/>
</g>
<g>
	<ellipse class="st20" cx="-76.2" cy="306.8" rx="50" ry="16.2"/>
	<polygon class="st21" points="-62.3,317.6 -76.2,317.6 -90.2,317.6 -83.2,305.5 -76.2,293.4 -69.2,305.5 	"/>
	<polygon class="st22" points="-62.3,317.6 -76.2,317.6 -90.2,317.6 -83.2,305.5 -76.2,293.4 -69.2,305.5 	"/>
	<path class="st8" d="M-114,307.9h-3.8l1.2-3.4c0.1-0.4,0.3-0.8,0.4-1.2c0.1-0.4,0.2-0.7,0.3-1.1h0c0.1,0.4,0.2,0.7,0.3,1.1
		c0.1,0.3,0.2,0.7,0.3,1.1L-114,307.9z M-109.5,312.7l-4.8-13.5h-2.9l-4.7,13.5h2.6l0.9-2.8h5.1l0.9,2.8H-109.5z"/>
	<path class="st8" d="M-102.6,302.5c-0.9,0-1.5,0.1-2,0.6c-0.5,0.4-0.9,1-1.1,1.6h0c0.1-0.4,0.1-0.7,0.1-1.1s0-0.7,0-0.9h-2.4v9.9
		h2.6v-4.1c0-2.8,0.9-4,2.8-3.6L-102.6,302.5z"/>
	<path class="st8" d="M-95.5,302.5c-0.9,0-1.5,0.1-2,0.6c-0.5,0.4-0.9,1-1.1,1.6h0c0.1-0.4,0.1-0.7,0.1-1.1c0-0.4,0-0.7,0-0.9h-2.4
		v9.9h2.6v-4.1c0-2.8,0.9-4,2.8-3.6L-95.5,302.5z"/>
	<path class="st8" d="M-88.2,306.4h-3.7c0.1-0.6,0.3-1.1,0.6-1.4c0.3-0.4,0.8-0.5,1.3-0.5c0.5,0,1,0.2,1.3,0.5
		C-88.4,305.3-88.2,305.8-88.2,306.4z M-85.7,307c0-1.3-0.3-2.3-1-3.1c-0.7-0.8-1.7-1.3-3.2-1.3c-1.5,0-2.6,0.5-3.4,1.5
		c-0.8,1-1.2,2.2-1.2,3.8c0,1.7,0.4,3,1.3,3.9c0.8,0.8,2.1,1.2,3.6,1.2c0.6,0,1.2-0.1,1.8-0.2s1.2-0.3,1.7-0.5l-0.2-2
		c-0.4,0.2-0.9,0.4-1.4,0.5c-0.5,0.1-1,0.2-1.5,0.2c-0.9,0-1.6-0.2-2.1-0.7s-0.7-1.1-0.7-2.1h6.2c0-0.2,0.1-0.4,0.1-0.6
		C-85.7,307.3-85.7,307.1-85.7,307z"/>
	<path class="st8" d="M-77.7,307.5c0,0.9-0.2,1.6-0.6,2.3c-0.4,0.6-0.9,1-1.6,1c-0.6,0-1-0.2-1.3-0.7c-0.3-0.5-0.4-1.2-0.4-2.1
		c0-1.2,0.2-2.1,0.7-2.6s1.1-0.8,1.8-0.8c0.2,0,0.4,0,0.7,0c0.2,0,0.4,0.1,0.7,0.1C-77.7,304.7-77.7,307.5-77.7,307.5z M-75.2,312.7
		v-14.6h-2.5v4.6c-0.2,0-0.4,0-0.6-0.1c-0.2,0-0.4,0-0.6,0c-1.7,0-3,0.6-3.9,1.6c-0.9,1-1.4,2.4-1.4,4.1c0,1.4,0.3,2.6,0.9,3.4
		s1.5,1.2,2.7,1.3c0.8,0,1.4-0.2,1.9-0.5c0.5-0.3,0.9-0.8,1.2-1.4h0c0,0.3-0.1,0.6-0.1,0.9c0,0.3,0,0.6,0,0.8L-75.2,312.7
		L-75.2,312.7z"/>
	<path class="st8" d="M-66,307.7c0,1-0.2,1.8-0.6,2.3c-0.4,0.5-0.9,0.8-1.6,0.8c-0.7,0-1.3-0.3-1.7-0.8c-0.4-0.5-0.6-1.3-0.6-2.3
		c0-1,0.3-1.8,0.7-2.2s1-0.7,1.6-0.7c0.7,0,1.3,0.3,1.7,0.8C-66.2,306-66,306.7-66,307.7z M-63.4,307.5c0-1.7-0.4-3-1.3-3.8
		c-0.8-0.8-2-1.2-3.4-1.2c-1.5,0-2.8,0.5-3.7,1.5c-0.9,1-1.4,2.3-1.4,3.8c0,1.8,0.4,3,1.3,3.8c0.8,0.8,1.9,1.2,3.4,1.2
		c1.5,0,2.7-0.5,3.7-1.5C-63.9,310.4-63.4,309.1-63.4,307.5z"/>
	<path class="st8" d="M-52.7,312.7v-7c0-0.9-0.2-1.6-0.6-2.2c-0.4-0.6-1.2-0.9-2.3-0.9c-0.8,0-1.5,0.2-2.1,0.6s-1,0.8-1.3,1.4l0,0
		c0-0.3,0.1-0.6,0.1-0.9c0-0.3,0-0.6,0-0.9h-2.4v9.9h2.6v-4.8c0-0.9,0.2-1.7,0.7-2.3c0.4-0.6,1-0.9,1.7-1c0.5,0,0.8,0.2,1,0.4
		c0.2,0.3,0.3,0.7,0.3,1.2v6.4L-52.7,312.7L-52.7,312.7z"/>
	<path class="st8" d="M-44,307.5c0,0.9-0.2,1.6-0.6,2.3c-0.4,0.6-0.9,1-1.6,1c-0.6,0-1-0.2-1.3-0.7c-0.3-0.5-0.4-1.2-0.4-2.1
		c0-1.2,0.2-2.1,0.7-2.6c0.5-0.5,1.1-0.8,1.8-0.8c0.2,0,0.4,0,0.7,0c0.2,0,0.4,0.1,0.7,0.1L-44,307.5L-44,307.5z M-41.5,312.7v-14.6
		H-44v4.6c-0.2,0-0.4,0-0.6-0.1c-0.2,0-0.4,0-0.6,0c-1.7,0-3,0.6-3.9,1.6c-0.9,1-1.4,2.4-1.4,4.1c0,1.4,0.3,2.6,0.9,3.4
		c0.6,0.8,1.5,1.2,2.7,1.3c0.8,0,1.4-0.2,1.9-0.5s0.9-0.8,1.2-1.4h0c0,0.3-0.1,0.6-0.1,0.9s0,0.6,0,0.8L-41.5,312.7L-41.5,312.7z"/>
	<path class="st8" d="M-32.3,307.7c0,1-0.2,1.8-0.6,2.3c-0.4,0.5-0.9,0.8-1.6,0.8c-0.7,0-1.3-0.3-1.7-0.8c-0.4-0.5-0.6-1.3-0.6-2.3
		c0-1,0.3-1.8,0.7-2.2s1-0.7,1.6-0.7c0.7,0,1.3,0.3,1.7,0.8C-32.5,306-32.3,306.7-32.3,307.7z M-29.7,307.5c0-1.7-0.4-3-1.3-3.8
		c-0.8-0.8-2-1.2-3.4-1.2c-1.5,0-2.8,0.5-3.7,1.5c-0.9,1-1.4,2.3-1.4,3.8c0,1.8,0.4,3,1.3,3.8c0.8,0.8,2,1.2,3.4,1.2
		c1.5,0,2.7-0.5,3.7-1.5C-30.2,310.4-29.7,309.1-29.7,307.5z"/>
	<path class="st8" d="M-30.3,302.2v0.4l0.2,0c0.1,0,0.1,0,0.2,0c0,0,0.1,0,0.1-0.1c0,0,0-0.1,0-0.1c0,0,0-0.1,0-0.1
		c0,0-0.1-0.1-0.1-0.1c0,0-0.1,0-0.2,0H-30.3z M-30.4,302h0.2c0.1,0,0.2,0,0.3,0c0.1,0,0.1,0.1,0.2,0.1s0.1,0.1,0.1,0.2
		c0,0.1,0,0.1,0,0.2c0,0-0.1,0.1-0.1,0.1c-0.1,0-0.1,0-0.2,0l0.4,0.6h-0.1l-0.4-0.6h-0.1v0.6h-0.1V302z"/>
	<path class="st8" d="M-105,318.2l-0.1-0.6c-0.1,0.1-0.2,0.1-0.4,0.1c-0.2,0-0.3,0-0.4,0.1c-0.4,0-0.7-0.1-0.9-0.4
		c-0.2-0.2-0.3-0.6-0.3-1.1c0-0.4,0.1-0.8,0.3-1s0.5-0.4,0.9-0.4c0.1,0,0.3,0,0.4,0c0.1,0,0.3,0.1,0.4,0.1l0.1-0.6
		c-0.1,0-0.3-0.1-0.4-0.1s-0.3,0-0.4,0c-0.4,0-0.8,0.1-1.1,0.3s-0.5,0.4-0.6,0.7c-0.1,0.3-0.2,0.7-0.2,1.1c0,0.4,0.1,0.7,0.2,1
		c0.1,0.3,0.3,0.5,0.6,0.7c0.3,0.2,0.6,0.3,1.1,0.3c0.2,0,0.4,0,0.6,0C-105.3,318.3-105.1,318.3-105,318.2z"/>
	<path class="st8" d="M-102.1,317.3h-1l0.3-0.9c0-0.1,0.1-0.2,0.1-0.2c0-0.1,0.1-0.2,0.1-0.2h0c0,0.1,0,0.1,0.1,0.2
		c0,0.1,0.1,0.2,0.1,0.2L-102.1,317.3z M-101.1,318.3l-1.1-3h-0.7l-1.2,3h0.6l0.2-0.6h1.3l0.2,0.6H-101.1z"/>
	<polygon class="st8" points="-98.2,318.3 -98.2,317.8 -99.3,317.8 -99.3,315.3 -99.9,315.3 -99.9,318.3 	"/>
	<rect x="-97" y="315.3" class="st8" width="0.6" height="3"/>
	<path class="st8" d="M-92.8,316.8c0,0.3-0.1,0.6-0.3,0.8c-0.2,0.2-0.4,0.3-0.8,0.3c-0.1,0-0.1,0-0.2,0c-0.1,0-0.1,0-0.2,0v-2
		c0.1,0,0.1,0,0.2,0c0.1,0,0.1,0,0.2,0c0.3,0,0.6,0.1,0.8,0.3C-92.9,316.2-92.8,316.5-92.8,316.8z M-92.1,316.8
		c0-0.5-0.2-0.9-0.4-1.1c-0.3-0.2-0.7-0.3-1.2-0.3c-0.2,0-0.4,0-0.6,0c-0.2,0-0.4,0-0.5,0v3c0.1,0,0.3,0,0.4,0c0.2,0,0.3,0,0.5,0
		c0.3,0,0.7-0.1,0.9-0.2c0.3-0.1,0.5-0.3,0.6-0.5C-92.2,317.4-92.1,317.1-92.1,316.8z"/>
	<path class="st8" d="M-89.3,317.3h-1l0.3-0.9c0-0.1,0.1-0.2,0.1-0.2c0-0.1,0.1-0.2,0.1-0.2h0c0,0.1,0,0.1,0.1,0.2
		c0,0.1,0.1,0.2,0.1,0.2L-89.3,317.3z M-88.3,318.3l-1.1-3h-0.7l-1.2,3h0.6l0.2-0.6h1.3l0.2,0.6H-88.3z"/>
	<path class="st8" d="M-85,316.8c0,0.3-0.1,0.6-0.3,0.8c-0.2,0.2-0.4,0.3-0.8,0.3c-0.1,0-0.1,0-0.2,0s-0.1,0-0.2,0v-2
		c0.1,0,0.1,0,0.2,0c0.1,0,0.1,0,0.2,0c0.3,0,0.6,0.1,0.8,0.3C-85.1,316.2-85,316.5-85,316.8z M-84.4,316.8c0-0.5-0.2-0.9-0.4-1.1
		c-0.3-0.2-0.7-0.3-1.2-0.3c-0.2,0-0.4,0-0.6,0c-0.2,0-0.4,0-0.5,0v3c0.1,0,0.3,0,0.4,0c0.2,0,0.3,0,0.5,0c0.3,0,0.7-0.1,0.9-0.2
		c0.3-0.1,0.5-0.3,0.6-0.5C-84.4,317.4-84.4,317.1-84.4,316.8z"/>
	<path class="st8" d="M-79.7,316.3c0,0.2-0.1,0.3-0.2,0.4c-0.1,0.1-0.3,0.1-0.5,0.1c0,0-0.1,0-0.1,0s-0.1,0-0.1,0v-1
		c0,0,0.1,0,0.1,0c0.1,0,0.1,0,0.2,0c0.2,0,0.3,0.1,0.4,0.1C-79.8,316-79.7,316.2-79.7,316.3z M-79.1,316.3c0-0.3-0.1-0.5-0.3-0.7
		c-0.2-0.2-0.5-0.3-0.9-0.3c-0.2,0-0.4,0-0.5,0c-0.2,0-0.3,0-0.5,0v3h0.6v-1c0,0,0.1,0,0.1,0c0.1,0,0.1,0,0.1,0
		c0.4,0,0.7-0.1,0.9-0.3C-79.2,316.9-79.1,316.6-79.1,316.3z"/>
	<path class="st8" d="M-75.7,316.8c0,0.3-0.1,0.6-0.3,0.8s-0.4,0.2-0.6,0.2c-0.3,0-0.5-0.1-0.6-0.3c-0.1-0.2-0.2-0.4-0.2-0.7
		c0-0.3,0.1-0.6,0.3-0.7c0.2-0.2,0.4-0.3,0.6-0.3c0.3,0,0.5,0.1,0.6,0.3C-75.8,316.2-75.7,316.5-75.7,316.8z M-75,316.8
		c0-0.5-0.1-0.9-0.4-1.2c-0.3-0.3-0.6-0.4-1.1-0.4c-0.3,0-0.5,0.1-0.8,0.2c-0.2,0.1-0.4,0.3-0.6,0.5c-0.1,0.2-0.2,0.5-0.2,0.9
		c0,0.5,0.1,0.8,0.4,1.1c0.2,0.3,0.6,0.4,1.1,0.4c0.3,0,0.6-0.1,0.8-0.2c0.2-0.1,0.4-0.3,0.6-0.5C-75.1,317.4-75,317.1-75,316.8z"/>
	<path class="st8" d="M-72.3,316.2c0,0.1-0.1,0.3-0.2,0.3c-0.1,0.1-0.2,0.1-0.4,0.1c0,0-0.1,0-0.2,0c-0.1,0-0.1,0-0.1,0v-0.9
		c0,0,0.1,0,0.1,0c0,0,0.1,0,0.1,0c0.2,0,0.3,0,0.4,0.1C-72.3,315.9-72.3,316.1-72.3,316.2z M-71.4,318.3l-0.8-1
		c0-0.1-0.1-0.1-0.1-0.2c0-0.1-0.1-0.1-0.1-0.1c0.2,0,0.4-0.1,0.6-0.3s0.2-0.3,0.2-0.6c0-0.3-0.1-0.5-0.3-0.6
		c-0.2-0.1-0.5-0.2-0.8-0.2c-0.2,0-0.4,0-0.6,0c-0.2,0-0.3,0-0.4,0v3h0.6v-1.3h0l0.9,1.3H-71.4z"/>
	<path class="st8" d="M-66.2,317.1c0-0.3-0.1-0.5-0.3-0.7c-0.2-0.2-0.4-0.3-0.6-0.4c-0.2-0.1-0.4-0.2-0.6-0.3
		c-0.2-0.1-0.3-0.2-0.3-0.4c0-0.2,0.1-0.3,0.2-0.4c0.1-0.1,0.3-0.2,0.6-0.2c0.1,0,0.2,0,0.4,0c0.1,0,0.2,0,0.4,0.1l0-0.6
		c-0.1,0-0.2,0-0.4-0.1c-0.1,0-0.2,0-0.4,0c-0.5,0-0.8,0.1-1.1,0.3c-0.3,0.2-0.4,0.5-0.4,0.8c0,0.3,0.1,0.5,0.3,0.7
		c0.2,0.2,0.4,0.3,0.6,0.3c0.2,0.1,0.4,0.2,0.6,0.3c0.2,0.1,0.3,0.2,0.3,0.4c0,0.2-0.1,0.4-0.2,0.5c-0.1,0.1-0.3,0.1-0.6,0.1
		c-0.1,0-0.3,0-0.4,0c-0.1,0-0.3-0.1-0.4-0.1l0,0.6c0.1,0,0.2,0.1,0.4,0.1c0.1,0,0.3,0,0.4,0c0.5,0,0.8-0.1,1.1-0.4
		C-66.3,317.8-66.2,317.5-66.2,317.1z"/>
	<rect x="-64.9" y="315.3" class="st8" width="0.6" height="3"/>
	<polygon class="st8" points="-60.9,318.3 -60.9,317.8 -62.1,317.8 -62.1,317 -61,317 -61,316.5 -62.1,316.5 -62.1,315.8 
		-60.9,315.8 -60.9,315.3 -62.7,315.3 -62.7,318.3 	"/>
	<path class="st8" d="M-55.6,318.3l-0.5-3h-0.8l-0.6,1.7c0,0.1-0.1,0.2-0.1,0.3c0,0.1,0,0.2-0.1,0.3h0c0-0.1,0-0.2-0.1-0.3
		c0-0.1-0.1-0.2-0.1-0.3l-0.6-1.7h-0.8l-0.5,3h0.6l0.2-1.6c0-0.1,0-0.3,0-0.4c0-0.1,0-0.2,0-0.3h0c0,0.1,0,0.2,0.1,0.3
		c0,0.1,0.1,0.2,0.1,0.3l0.5,1.6h0.7l0.6-1.7c0-0.1,0.1-0.2,0.1-0.3c0-0.1,0-0.2,0.1-0.3h0c0,0.1,0,0.2,0,0.3c0,0.1,0,0.2,0.1,0.4
		l0.2,1.6L-55.6,318.3L-55.6,318.3z"/>
	<path class="st8" d="M-52.7,316.3c0,0.2-0.1,0.3-0.2,0.4c-0.1,0.1-0.3,0.1-0.5,0.1c0,0-0.1,0-0.1,0s-0.1,0-0.1,0v-1
		c0,0,0.1,0,0.1,0c0.1,0,0.1,0,0.2,0c0.2,0,0.3,0.1,0.4,0.1C-52.7,316-52.7,316.2-52.7,316.3z M-52,316.3c0-0.3-0.1-0.5-0.3-0.7
		c-0.2-0.2-0.5-0.3-0.9-0.3c-0.2,0-0.4,0-0.5,0c-0.2,0-0.3,0-0.5,0v3h0.6v-1c0,0,0.1,0,0.1,0c0.1,0,0.1,0,0.1,0
		c0.4,0,0.7-0.1,0.9-0.3C-52.1,316.9-52,316.6-52,316.3z"/>
	<path class="st8" d="M-49.3,316.2c0,0.1-0.1,0.3-0.2,0.3c-0.1,0.1-0.2,0.1-0.4,0.1c0,0-0.1,0-0.2,0c0,0-0.1,0-0.1,0v-0.9
		c0,0,0.1,0,0.1,0c0,0,0.1,0,0.1,0c0.2,0,0.3,0,0.4,0.1C-49.4,315.9-49.3,316.1-49.3,316.2z M-48.5,318.3l-0.8-1
		c0-0.1-0.1-0.1-0.1-0.2c0-0.1-0.1-0.1-0.1-0.1c0.2,0,0.4-0.1,0.6-0.3c0.2-0.1,0.2-0.3,0.2-0.6c0-0.3-0.1-0.5-0.3-0.6
		c-0.2-0.1-0.5-0.2-0.8-0.2c-0.2,0-0.4,0-0.6,0c-0.2,0-0.3,0-0.4,0v3h0.6v-1.3h0l0.9,1.3H-48.5z"/>
	<polygon class="st8" points="-45.4,318.3 -45.4,317.8 -46.6,317.8 -46.6,317 -45.5,317 -45.5,316.5 -46.6,316.5 -46.6,315.8 
		-45.4,315.8 -45.4,315.3 -47.2,315.3 -47.2,318.3 	"/>
</g>
<g>
	<rect x="169.2" y="40.9" class="st23" width="100" height="31.8"/>
	<g>
		<path class="st24" d="M183.1,54.1c0-1,1.2-1.1,2-1.1c1.2,0,2.2,0.3,3,0.7l0.3-2.5c-0.9-0.3-2.1-0.5-3.6-0.5
			c-2.3,0-4.9,0.7-4.9,3.5c0,4.3,5.9,3.1,5.9,5.2c0,0.9-1.1,1.1-2.1,1.1c-1.4,0-2.6-0.4-3.4-0.9l-0.4,2.7c0.8,0.3,2.2,0.6,3.8,0.6
			c2.6,0,5.3-0.7,5.3-3.7C189,55,183.1,56,183.1,54.1z"/>
		<polygon class="st24" points="199.7,50.9 189.8,50.9 189.8,53.3 193.2,53.3 193.2,62.6 196.3,62.6 196.3,53.3 199.7,53.3 		"/>
		<polygon class="st24" points="254.9,50.9 252.6,55.6 250.3,50.9 246.8,50.9 251.1,58.2 251.1,62.6 254.2,62.6 254.2,58.2 
			258.5,50.9 		"/>
		<polygon class="st24" points="213.1,50.9 213.1,62.6 216.1,62.6 216.1,56.3 221.2,62.6 223.8,62.6 223.8,60.9 215.7,50.9 		"/>
		<polygon class="st24" points="223.8,50.9 219,50.9 223.8,56.8 		"/>
		<polygon class="st24" points="240,57.9 244.9,57.9 244.9,55.5 240,55.5 240,53.2 245.4,53.2 245.4,50.9 236.8,50.9 236.8,62.6 
			245.6,62.6 245.6,60.3 240,60.3 		"/>
		<polygon class="st24" points="229.8,50.9 226.6,50.9 226.6,62.6 234.9,62.6 234.9,60.2 229.8,60.2 		"/>
		<path class="st24" d="M203.4,50.9l-4.3,11.7h3l0.8-2.3h4.4l0.8,2.3h3.3L207,50.9H203.4z M203.7,58.1l1.5-4.7l1.5,4.7H203.7z"/>
		<path class="st24" d="M255.9,61.9L255.9,61.9c0.1,0,0.1-0.1,0.1-0.2c0-0.1,0-0.1-0.1-0.2c0,0-0.1-0.1-0.2-0.1c-0.1,0-0.2,0-0.3,0
			v0.7h0.2V62h0.1c0.1,0,0.1,0,0.1,0.1c0,0.1,0,0.1,0.1,0.2h0.2c0,0,0-0.1-0.1-0.2C256,62,256,61.9,255.9,61.9z M255.7,61.9
			L255.7,61.9l-0.1-0.2c0,0,0,0,0.1,0c0.1,0,0.2,0,0.2,0.1C255.9,61.8,255.8,61.9,255.7,61.9z"/>
		<path class="st24" d="M255.8,61.2L255.8,61.2c-0.4,0-0.7,0.3-0.7,0.7c0,0.4,0.3,0.7,0.7,0.7c0.4,0,0.7-0.3,0.7-0.7
			C256.5,61.5,256.2,61.2,255.8,61.2z M255.8,62.5c-0.3,0-0.6-0.3-0.6-0.6c0-0.3,0.2-0.6,0.5-0.6h0c0.3,0,0.5,0.3,0.5,0.6
			C256.3,62.2,256.1,62.5,255.8,62.5z"/>
	</g>
</g>
<g>
	<rect class="st25" width="23.5" height="20.2"/>
	<g>
		<g>
			<defs>
				<rect id="SVGID_7_" y="0" width="100" height="20.2"/>
			</defs>
			<clipPath id="SVGID_8_">
				<use xlink:href="#SVGID_7_"  style="overflow:visible;"/>
			</clipPath>
			<rect x="0" class="st26" width="23.5" height="20.2"/>
		</g>
	</g>
	<polygon class="st1" points="10.4,11.6 10.4,10.6 14.4,10.6 14.4,8.6 18.3,8.6 18.3,5.1 5.2,5.1 5.2,15.2 18.3,15.2 18.3,11.6 	"/>
	<path class="st27" d="M43.6,15.2h4.5V8.6h-4.5V15.2z M50.1,8.6v6.6h4.5v-4.5h1.9v4.5h4.5V8.6H50.1z M80.6,9.9h2.6v1h-2.6V9.9z
		 M76,8.6v6.6h11v-2h-6.5v-1H87V8.6H76z M28.7,5.1v10.1h13v-3.5h-7.8v-1h3.9v-2h3.9V5.1L28.7,5.1L28.7,5.1z M43.6,7.1h4.5v-2h-4.5
		V7.1z M63.1,5.1v10.1h4.5v-4.5h1.9v4.5h4.5V8.6h-6.5V5.1L63.1,5.1L63.1,5.1z M89,15.2h4.5V5.1H89V15.2z M95.5,15.2h4.5V5.1h-4.5
		V15.2z"/>
</g>
</svg>
