<?xml version="1.0" encoding="utf-8"?>
<!-- Generator: Adobe Illustrator 24.0.3, SVG Export Plug-In . SVG Version: 6.00 Build 0)  -->
<svg version="1.1" id="Capa_1" xmlns="http://www.w3.org/2000/svg" xmlns:xlink="http://www.w3.org/1999/xlink" x="0px" y="0px"
	 width="100px" height="100px" viewBox="0 0 100 100" style="enable-background:new 0 0 100 100;" xml:space="preserve">
<style type="text/css">
	.st0{fill:#E30613;}
	.st1{fill:#FFFFFF;}
	.st2{fill-rule:evenodd;clip-rule:evenodd;fill:#004177;}
	.st3{fill:#004177;}
	.st4{clip-path:url(#SVGID_2_);fill-rule:evenodd;clip-rule:evenodd;fill:#DD2818;}
	.st5{clip-path:url(#SVGID_4_);fill-rule:evenodd;clip-rule:evenodd;fill:#DD2818;}
	.st6{fill-rule:evenodd;clip-rule:evenodd;fill:#003B75;}
	.st7{fill:none;stroke:#FFFFFF;stroke-width:3;stroke-miterlimit:10;}
	.st8{fill-rule:evenodd;clip-rule:evenodd;fill:#FFFFFF;}
	.st9{fill-rule:evenodd;clip-rule:evenodd;fill:#18346D;}
	.st10{fill-rule:evenodd;clip-rule:evenodd;fill:#BB2E2D;}
	.st11{fill:#18346D;}
	.st12{clip-path:url(#SVGID_6_);fill:#FFFFFF;}
	.st13{fill:#104B9D;}
	.st14{fill:#DE1E2D;}
	.st15{fill-rule:evenodd;clip-rule:evenodd;fill:#DF050B;}
	.st16{fill-rule:evenodd;clip-rule:evenodd;fill:#FEFEFE;}
	.st17{fill-rule:evenodd;clip-rule:evenodd;fill:#004D97;}
	.st18{fill:#009A49;}
	.st19{fill:#352B6B;}
	.st20{fill:#372F8F;}
	.st21{fill:#E9292B;}
	.st22{fill:none;stroke:#372F8F;stroke-width:3.199;stroke-miterlimit:3.8637;}
	.st23{fill:#FFD300;}
	.st24{fill:#1D1D1B;}
</style>
<g id="g300">
	<path id="path310" class="st0" d="M265.557,155.794h-99.998v-33.332h99.998V155.794z"/>
	<g id="g312" transform="translate(404.711,35.0734)">
		<path id="path314" class="st1" d="M-151.083,117.18h-3.154l2.495-6.251h3.156L-151.083,117.18z M-202.748,117.18h-3.157
			l2.495-6.251h3.156L-202.748,117.18z M-146.165,117.039l3.596-9.876h-9.687c-3.011,0.07-4.037,3.409-4.037,3.409l-2.421,6.467
			h-5.139l2.421-6.75h2.937l1.1-3.339h-2.715l1.761-4.691h-4.623l-1.981,4.834h-2.862l-1.176,3.268h3.008l-2.567,6.748h-5.137
			l3.597-10.016h-4.478l-3.962,10.052l-3.962,0.036l-0.956-3.694l6.458-6.324h-5.356l-5.137,4.902l3.448-9.806h-4.477l-5.651,14.85
			h-3.669l3.523-9.946h-9.909c-2.573,0-3.67,2.771-3.67,2.771l-2.862,7.106h-3.669l3.597-9.876h-7.855l0.881-2.486h-7.779
			l0.806-2.418h-14.386v4.122h8.22l-5.425,14.339h4.697l4.618-12.066h3.083l-4.324,12.066h4.694l3.666-9.791h3.377l-3.81,9.791
			h6.324c0.154-0.11,1.344-0.953,3.175-2.295c0,0,0.434,1.748,1.843,2.295h3.319c0.07-0.09,0.538-0.519,2.802-2.367
			c0,0,0.109,1.646,1.658,2.367h4.004c0.09-0.104,0.712-0.786,2.631-2.349l-0.912,2.349h4.735l2.637-6.88l2.123,6.88h4.86
			l2.41-2.331c0.376,1.933,1.756,2.275,2.158,2.331h5.341l2.482-2.261c0.204,1.509,1.841,2.168,2.093,2.261h5.336l2.407-2.331
			c0.294,1.989,2.348,2.331,2.348,2.331h3.229l2.275-2.331c0.368,1.989,2.57,2.331,2.57,2.331h9.357v-3.681h-7.011V117.039z
			 M-168.404,102.259h-4.475l-1.322,3.695h4.478L-168.404,102.259z"/>
	</g>
</g>
<g>
	<path class="st2" d="M254.473,211.496l0.273-0.001c0.179,0.001,0.303-0.032,0.38-0.089c0.071-0.053,0.109-0.139,0.108-0.23
		c0.001-0.088-0.038-0.171-0.105-0.225c-0.073-0.058-0.198-0.09-0.365-0.09l-0.292,0.002L254.473,211.496z M253.843,210.432
		l1.124-0.005c0.325-0.002,0.551,0.063,0.698,0.188c0.141,0.131,0.212,0.303,0.213,0.516c0.002,0.172-0.048,0.315-0.159,0.441
		c-0.114,0.121-0.281,0.214-0.52,0.268c0.1,0.039,0.17,0.083,0.217,0.121c0.058,0.059,0.128,0.141,0.204,0.25l0.405,0.733
		l-0.74,0.003c-0.246-0.479-0.404-0.766-0.488-0.863c-0.082-0.09-0.162-0.134-0.249-0.134c-0.018,0-0.041,0-0.074,0.011l0.005,0.989
		l-0.624,0.003L253.843,210.432z M256.817,211.676c-0.003-0.524-0.187-0.967-0.563-1.334c-0.37-0.374-0.82-0.555-1.346-0.554
		c-0.524,0.002-0.977,0.189-1.346,0.567c-0.373,0.368-0.549,0.811-0.547,1.338s0.181,0.973,0.56,1.343
		c0.371,0.369,0.825,0.551,1.35,0.548c0.523-0.003,0.973-0.185,1.34-0.558C256.638,212.652,256.819,212.203,256.817,211.676
		 M257.273,211.676c0.003,0.423-0.106,0.819-0.312,1.183c-0.209,0.362-0.491,0.654-0.859,0.865c-0.365,0.209-0.756,0.316-1.18,0.318
		c-0.417,0.002-0.81-0.105-1.173-0.309c-0.366-0.206-0.658-0.496-0.871-0.859c-0.215-0.361-0.317-0.754-0.318-1.181
		c-0.002-0.414,0.098-0.805,0.307-1.174c0.213-0.364,0.499-0.652,0.865-0.866c0.36-0.21,0.752-0.319,1.17-0.322
		c0.424,0,0.814,0.106,1.184,0.312c0.37,0.209,0.653,0.497,0.867,0.858C257.161,210.868,257.272,211.26,257.273,211.676"/>
	<path class="st1" d="M218.553,175.271l44.64,21.832c1.942,0.869,2.553,4.089,0.277,5.485l-44.715,22.272
		c-1.772,0.884-4.403,0.894-6.182,0.024l-44.755-21.845c-2.218-1.474-2.151-4.348,0.039-5.547l44.515-22.196
		C214.145,174.413,216.776,174.403,218.553,175.271"/>
	<path class="st1" d="M215.634,226.155c-1.216,0-2.399-0.253-3.335-0.709l-44.791-21.863l-0.034-0.024
		c-1.254-0.836-1.97-2.149-1.911-3.519c0.056-1.287,0.801-2.445,1.994-3.096l0.022-0.012l44.514-22.197
		c0.952-0.474,2.16-0.736,3.403-0.736c1.215,0,2.398,0.253,3.334,0.71l44.629,21.826c1.178,0.532,1.998,1.784,2.089,3.194
		c0.09,1.395-0.566,2.662-1.752,3.39l-0.046,0.027l-44.715,22.273C218.084,225.894,216.876,226.155,215.634,226.155
		 M168.133,202.494l44.715,21.827c0.768,0.374,1.757,0.583,2.786,0.583c1.053,0,2.062-0.215,2.844-0.604l44.687-22.26
		c0.781-0.488,1.196-1.3,1.135-2.229c-0.062-0.941-0.608-1.799-1.361-2.136l-0.021-0.009l-44.639-21.833
		c-0.767-0.372-1.755-0.581-2.783-0.581c-1.053,0-2.063,0.216-2.845,0.603l-44.502,22.191c-0.811,0.449-1.298,1.195-1.335,2.05
		C166.775,201.012,167.267,201.905,168.133,202.494"/>
	<path class="st3" d="M218.547,175.41l44.456,21.731c2.169,1.05,2.484,4.314,0.213,5.446l-44.467,22.172
		c-1.772,0.877-4.389,0.886-6.152,0.023l-44.087-21.526c-2.784-1.356-2.835-4.534-0.269-5.814l44.155-22.006
		C214.155,174.557,216.769,174.548,218.547,175.41"/>
	<path class="st1" d="M218.445,176.222l43.646,21.314c2.355,1.158,2.367,3.529,0.017,4.7l-43.469,21.672
		c-1.703,0.846-4.237,0.857-5.947,0.023l-43.646-21.323c-2.362-1.149-2.371-3.521-0.019-4.691l43.472-21.669
		C214.2,175.4,216.735,175.39,218.445,176.222"/>
	<g>
		<g>
			<defs>
				<path id="SVGID_1_" d="M215.502,175.605c-1.071,0-2.143,0.215-3.004,0.643l-43.472,21.669c-2.352,1.17-2.342,3.542,0.019,4.692
					l43.645,21.322c1.711,0.834,4.246,0.824,5.948-0.023l43.469-21.672c2.35-1.17,2.338-3.542-0.018-4.7l-43.645-21.314
					c-0.846-0.412-1.893-0.617-2.94-0.617L215.502,175.605L215.502,175.605z"/>
			</defs>
			<clipPath id="SVGID_2_">
				<use xlink:href="#SVGID_1_"  style="overflow:visible;"/>
			</clipPath>
			<polygon class="st4" points="184.835,168.108 248.024,167.85 248.161,187.12 184.912,187.127 			"/>
		</g>
		<g>
			<defs>
				<path id="SVGID_3_" d="M215.502,175.605c-1.071,0-2.143,0.215-3.004,0.643l-43.472,21.669c-2.352,1.17-2.342,3.542,0.019,4.692
					l43.645,21.322c1.711,0.834,4.246,0.824,5.948-0.023l43.469-21.672c2.35-1.17,2.338-3.542-0.018-4.7l-43.645-21.314
					c-0.846-0.412-1.893-0.617-2.94-0.617L215.502,175.605L215.502,175.605z"/>
			</defs>
			<clipPath id="SVGID_4_">
				<use xlink:href="#SVGID_3_"  style="overflow:visible;"/>
			</clipPath>
			<polygon class="st5" points="184.262,213.403 247.477,213.399 247.554,232.205 184.371,232.462 			"/>
		</g>
	</g>
	<polygon class="st6" points="202.922,192.5 209.907,192.473 214.852,201.442 219.872,192.431 226.719,192.405 218.023,208.161 
		211.714,208.187 	"/>
	<path class="st6" d="M233.104,197.023l7.43-0.03c0.829-0.005,3.281,0.39,3.292,3.247c0.011,2.44-1.958,3.37-3.226,3.378
		l-7.47,0.029L233.104,197.023z M227.181,192.401l15.098-0.062c3.248,0,7.487,3.132,7.507,7.831
		c0.025,5.916-5.193,7.712-7.482,7.719l-9.227,0.039l0.017,3.823l-5.836,0.023L227.181,192.401z"/>
	<path class="st6" d="M196.685,203.797l-7.429,0.031c-0.827,0.002-3.281-0.583-3.294-3.442c-0.01-2.442,1.966-3.179,3.224-3.183
		l7.472-0.03L196.685,203.797z M202.617,208.224l-15.109,0.061c-3.246,0.01-7.483-3.128-7.503-7.826
		c-0.023-5.917,5.192-7.885,7.483-7.896l9.226-0.038l-0.015-3.649l5.838-0.022L202.617,208.224z"/>
</g>
<g>
	<path class="st7" d="M180.948,231.711h69.253c7.561,0,13.696,6.13,13.696,13.696v40.953c0,7.567-6.135,13.696-13.696,13.696
		h-69.253c-7.567,0-13.699-6.129-13.699-13.696v-40.953C167.249,237.841,173.381,231.711,180.948,231.711z"/>
	<path class="st8" d="M180.948,231.711h69.253c7.561,0,13.696,6.13,13.696,13.696v40.953c0,7.567-6.135,13.696-13.696,13.696
		h-69.253c-7.567,0-13.699-6.129-13.699-13.696v-40.953C167.249,237.841,173.381,231.711,180.948,231.711"/>
	<path class="st9" d="M216.471,231.711h-35.522c-7.568,0-13.699,6.13-13.699,13.696v40.953c0,7.567,6.131,13.696,13.699,13.696
		h35.522V231.711z"/>
	<rect x="182.013" y="277.545" class="st1" width="68.508" height="16.034"/>
	<path class="st10" d="M263.898,286.36v-0.498l-14.195,14.194h0.499c3.218,0,6.172-1.12,8.509-2.979l2.207-2.207
		C262.778,292.535,263.898,289.579,263.898,286.36"/>
	<path class="st9" d="M185.971,288.915v-6.84h2.649c0.513,0.007,0.917,0.108,1.219,0.308c0.306,0.192,0.522,0.448,0.656,0.758
		c0.131,0.307,0.194,0.637,0.188,0.985c-0.008,0.705-0.224,1.229-0.654,1.559c-0.428,0.335-1.006,0.5-1.729,0.497h-0.814v2.733
		H185.971z M187.487,283.09v2.08h0.674c0.303,0.005,0.547-0.086,0.73-0.253c0.181-0.168,0.273-0.427,0.279-0.773
		c0-0.339-0.079-0.594-0.242-0.779c-0.164-0.176-0.435-0.273-0.812-0.276h-0.629V283.09z"/>
	<path class="st9" d="M191.337,282.075h1.517v4.768c-0.01,0.352,0.052,0.626,0.176,0.845c0.124,0.222,0.363,0.331,0.711,0.342
		c0.344-0.011,0.579-0.12,0.705-0.342c0.126-0.219,0.186-0.493,0.174-0.845v-4.768h1.515v4.768
		c-0.005,0.578-0.125,1.027-0.343,1.346c-0.226,0.321-0.52,0.543-0.887,0.673c-0.36,0.125-0.747,0.185-1.163,0.182
		c-0.422,0.01-0.808-0.044-1.177-0.165c-0.358-0.113-0.649-0.338-0.878-0.649c-0.223-0.323-0.344-0.789-0.349-1.388L191.337,282.075
		L191.337,282.075z"/>
	<path class="st9" d="M198.615,283.09v1.973h0.631c0.363,0.002,0.645-0.076,0.839-0.232c0.196-0.166,0.294-0.429,0.294-0.792
		c-0.006-0.633-0.357-0.948-1.051-0.948h-0.713V283.09z M197.094,288.915v-6.84h2.803c0.632,0,1.116,0.15,1.467,0.444
		c0.352,0.292,0.528,0.734,0.535,1.318c0,0.459-0.104,0.834-0.307,1.121c-0.206,0.295-0.521,0.476-0.948,0.566v0.017
		c0.339,0.041,0.595,0.132,0.769,0.277c0.171,0.147,0.286,0.361,0.348,0.654c0.061,0.293,0.089,0.68,0.089,1.158
		c0,0.356,0.029,0.634,0.078,0.832c0.039,0.197,0.127,0.324,0.262,0.396v0.057h-1.643c-0.068-0.102-0.12-0.212-0.145-0.329
		c-0.029-0.128-0.039-0.254-0.039-0.387l-0.047-1.313c-0.009-0.278-0.08-0.49-0.223-0.635c-0.147-0.148-0.366-0.223-0.669-0.23
		h-0.809v2.894H197.094z"/>
	<path class="st9" d="M202.433,288.915l1.991-6.84h1.874l1.991,6.84h-1.58l-0.353-1.451h-1.995l-0.347,1.451H202.433z
		 M205.348,283.263l-0.722,3.071h1.475l-0.728-3.071H205.348z"/>
	<path class="st9" d="M211.324,288.915v-6.84h2.655c0.511,0.007,0.917,0.108,1.222,0.308c0.305,0.192,0.519,0.448,0.655,0.758
		c0.126,0.307,0.193,0.637,0.19,0.985c-0.01,0.705-0.232,1.229-0.656,1.559c-0.425,0.335-1.003,0.5-1.74,0.497h-0.801v2.733H211.324
		z M212.848,283.09v2.08h0.673c0.303,0.005,0.545-0.086,0.729-0.253c0.176-0.168,0.27-0.427,0.279-0.773
		c0-0.339-0.078-0.594-0.244-0.779c-0.164-0.176-0.434-0.273-0.812-0.276h-0.625V283.09z"/>
	<rect x="216.867" y="282.074" class="st9" width="1.518" height="6.84"/>
	<polygon class="st9" points="219.503,282.075 221.248,282.075 223.086,286.756 223.109,286.756 223.109,282.075 224.494,282.075 
		224.494,288.915 222.769,288.915 220.915,284.126 220.894,284.126 220.894,288.915 219.503,288.915 	"/>
	<polygon class="st9" points="225.15,282.075 229.948,282.075 229.948,283.206 228.305,283.206 228.305,288.915 226.794,288.915 
		226.794,283.206 225.15,283.206 	"/>
	<path class="st9" d="M230.508,282.075h1.518v4.768c-0.006,0.352,0.05,0.626,0.176,0.845c0.124,0.222,0.363,0.331,0.708,0.342
		c0.341-0.011,0.583-0.12,0.702-0.342c0.132-0.219,0.185-0.493,0.176-0.845v-4.768h1.525v4.768c-0.015,0.578-0.124,1.027-0.35,1.346
		c-0.231,0.321-0.519,0.543-0.885,0.673c-0.363,0.125-0.755,0.185-1.168,0.182c-0.424,0.01-0.812-0.044-1.17-0.165
		c-0.362-0.113-0.655-0.338-0.885-0.649c-0.227-0.323-0.342-0.789-0.347-1.388L230.508,282.075L230.508,282.075z"/>
	<path class="st9" d="M237.783,283.09v1.973h0.63c0.364,0.002,0.643-0.076,0.84-0.232c0.199-0.166,0.293-0.429,0.298-0.792
		c-0.009-0.633-0.362-0.948-1.052-0.948h-0.716V283.09z M236.26,288.915v-6.84h2.804c0.63,0,1.117,0.15,1.466,0.444
		c0.349,0.292,0.528,0.734,0.539,1.318c0,0.459-0.105,0.834-0.307,1.121c-0.205,0.295-0.524,0.476-0.948,0.566v0.017
		c0.335,0.041,0.594,0.132,0.767,0.277c0.174,0.147,0.289,0.361,0.352,0.654c0.061,0.293,0.087,0.68,0.087,1.158
		c0,0.356,0.027,0.634,0.072,0.832c0.042,0.197,0.129,0.324,0.27,0.396v0.057h-1.648c-0.07-0.102-0.116-0.212-0.143-0.329
		c-0.025-0.128-0.041-0.254-0.047-0.387l-0.041-1.313c-0.002-0.278-0.084-0.49-0.226-0.635c-0.145-0.148-0.362-0.223-0.663-0.23
		h-0.812v2.894H236.26z"/>
	<path class="st9" d="M241.604,288.915l1.989-6.84h1.872l1.989,6.84h-1.574l-0.346-1.451h-2.005l-0.35,1.451H241.604z
		 M244.518,283.263l-0.727,3.071h1.474l-0.724-3.071H244.518z"/>
	<path class="st10" d="M218.171,241.66l9.951-9.948h-6.033l-5.617,5.615v4.298C217.045,241.624,217.605,241.647,218.171,241.66"/>
	<path class="st10" d="M229.193,242.718l11.004-11.006h-6.025L223.884,242C225.711,242.181,227.494,242.411,229.193,242.718"/>
	<path class="st10" d="M238.548,245.271l13.434-13.431c-0.583-0.076-1.174-0.129-1.779-0.129h-4.122l-12.09,12.083
		C235.614,244.234,237.135,244.728,238.548,245.271"/>
	<path class="st10" d="M246.224,249.678l13.8-13.806c-0.998-1.028-2.161-1.905-3.443-2.581l-13.902,13.901
		C244.053,247.962,245.243,248.793,246.224,249.678"/>
	<path class="st10" d="M249.402,255.65c0,1.652-0.704,3.229-1.936,4.699l16.359-16.359c-0.172-1.664-0.653-3.236-1.366-4.667
		l-13.667,13.672C249.181,253.854,249.402,254.737,249.402,255.65"/>
	<path class="st10" d="M218.358,277.545l8.611-8.611c-2.135,0.306-4.365,0.526-6.673,0.643l-3.825,3.826v4.141h1.887V277.545z"/>
	<path class="st10" d="M230.271,277.545l15.635-15.634c-2.636,2.242-6.624,4.139-11.534,5.498l-10.136,10.136L230.271,277.545
		L230.271,277.545z"/>
	<polygon class="st10" points="220.284,293.578 216.471,297.392 216.471,300.055 219.836,300.055 226.314,293.578 	"/>
	<polygon class="st10" points="236.32,277.545 242.349,277.545 263.898,255.998 263.898,249.965 	"/>
	<polygon class="st10" points="232.195,293.578 225.718,300.055 231.744,300.055 238.223,293.578 	"/>
	<polygon class="st10" points="248.229,277.545 250.521,277.545 250.521,281.283 263.898,267.904 263.898,261.873 	"/>
	<polygon class="st10" points="244.273,293.578 237.797,300.055 243.832,300.055 250.308,293.578 	"/>
	<polygon class="st10" points="250.521,287.33 250.521,293.365 263.898,279.987 263.898,273.95 	"/>
	<path class="st8" d="M183.389,255.65c0-7.747,14.778-14.028,33.007-14.028c18.226,0,33.005,6.281,33.005,14.028
		c0,7.755-14.779,14.03-33.005,14.03C198.167,269.68,183.389,263.404,183.389,255.65"/>
	<path class="st11" d="M216.396,270.42c-8.911,0-17.307-1.478-23.638-4.17c-6.518-2.772-10.114-6.535-10.114-10.6
		c0-4.058,3.596-7.826,10.114-10.598c6.33-2.688,14.726-4.17,23.638-4.17c8.917,0,17.305,1.482,23.632,4.17
		c6.527,2.772,10.117,6.54,10.117,10.598c0,4.065-3.589,7.828-10.117,10.6C233.701,268.942,225.313,270.42,216.396,270.42
		 M216.396,242.364c-8.72,0-16.911,1.436-23.05,4.047c-5.859,2.493-9.219,5.856-9.219,9.239c0,3.387,3.36,6.755,9.219,9.244
		c6.139,2.607,14.33,4.047,23.05,4.047c8.722,0,16.902-1.44,23.05-4.047c5.856-2.491,9.22-5.858,9.22-9.244
		c0-3.382-3.364-6.746-9.22-9.239C233.298,243.8,225.118,242.364,216.396,242.364"/>
	<rect x="211.794" y="252.365" class="st10" width="3.35" height="11.065"/>
	<polygon class="st10" points="211.863,249.335 213.601,247.911 215.258,249.438 213.7,250.679 	"/>
	<path class="st10" d="M200.013,248.022c0,0,2.6-0.943,5.606-3.198c0,0,3.308,0.824,3.736,0.824c0.458,0,0.411-0.291,0.622-0.33
		c0.358-0.065,0.774,0.355,0.774,0.355s-1.651,2.573-1.651,2.625c0,0.157-1.453,0.126-5.085-0.676
		c-0.102-0.021-0.635,0.005-0.789,0.752v5.136c0,0,0.938,1.198,3.114-1.155c0.071-0.072,3.27,1.404,3.27,1.404v8.046
		c0,0-1.701,0.093-4.189,2.696c-0.037,0.038-3.197-1.136-4.411-0.747c-0.782,0.248-0.945-0.102-1.092,0.6
		c-0.01,0.052-0.939,0.303-0.939-0.149c0-0.451,2.235-3.758,2.235-3.758l5.181,1.052v-5.837l-3.105,0.877l-3.276-2.306v-6.211
		H200.013z"/>
	<path class="st10" d="M231.554,263.906h3.083V252.78c0,0-1.174,0.069-4.141-0.776c-0.052-0.01-1.756,1.641-3.151,1.937
		c-0.411,0.089-0.147,2.293-0.147,2.293s0.848,0.297,0.848-0.253c0-1.014,1.19-1.247,1.937-1.343
		c1.378-0.182,2.688,1.843-0.15,2.438c-1.959,0.414-1.874,0.523-2.614,0.523c-0.322,0-3.423,5.495,2.665,6.335
		c0.9,0.125,0.519-0.503,1.668-0.814C231.578,263.115,231.554,263.906,231.554,263.906"/>
	<path class="st8" d="M231.527,261.135v-2.719c0,0-1.098,0.242-1.537,1.128C229.834,259.859,229.549,261.348,231.527,261.135"/>
	<path class="st10" d="M216.658,252.143v14.768h3.682v-2.781v-1.065c0,0,3.628,2.984,4.871-1.128c0.034-0.102,0-8.058,0-8.058
		s-1.741-0.195-2.782-1.693l-2.088,0.751v-0.793h-3.683V252.143z"/>
	<path class="st8" d="M221.857,255.674v5.072c0,0.417-0.339,0.76-0.758,0.76c-0.424,0-0.759-0.314-0.759-0.736l-0.003-5.052
		c0-0.42,0.339-0.758,0.763-0.758c0.419,0,0.758,0.338,0.758,0.758L221.857,255.674L221.857,255.674z"/>
</g>
<g>
	<g>
		<g>
			<defs>
				<rect id="SVGID_5_" x="167.626" y="322.366" width="100" height="65.656"/>
			</defs>
			<clipPath id="SVGID_6_">
				<use xlink:href="#SVGID_5_"  style="overflow:visible;"/>
			</clipPath>
			<path class="st12" d="M181.515,322.366h76.607c0,0,10.278,0.149,9.525,12.371c0,0-0.167,1.638-0.519,2.979l-13.35,50.423h-76.405
				c0,0-10.177,0.259-9.733-12.303c0,0-0.079-0.659,0.513-3.094L181.515,322.366z"/>
		</g>
	</g>
	<path class="st13" d="M257.299,324.769c5.919,0,9.202,5.723,7.331,12.783l-12.859,48.56h-74.366c-5.919,0-9.201-5.724-7.331-12.783
		l12.861-48.561L257.299,324.769z"/>
	<path class="st1" d="M177.152,362.305c-2.624-14.417,13.245-29.179,35.448-32.971s42.327,4.821,44.952,19.239
		c2.624,14.417-13.246,29.179-35.448,32.971S179.776,376.723,177.152,362.305"/>
	<path class="st14" d="M188.828,370.589l-1.874-0.005c-2.332,0-3.801-1.782-3.19-4.045l6.389-23.661
		c0.212-0.784,1.018-1.419,1.803-1.419h5.198c0.783,0,1.247,0.635,1.036,1.419l-5.598,20.739l7.509-0.002
		c0.783,0,1.247,0.635,1.036,1.418l-1.116,4.133c-0.212,0.783-1.018,1.419-1.803,1.419L188.828,370.589z"/>
	<path class="st14" d="M221.233,360.721c0.591-2.189,2.844-3.964,5.034-3.964s3.486,1.775,2.895,3.964
		c-0.592,2.189-2.846,3.964-5.035,3.964C221.938,364.685,220.642,362.91,221.233,360.721 M214.887,360.721
		c1.537-5.694,7.399-10.31,13.093-10.31c5.695,0,9.064,4.616,7.528,10.31c-1.538,5.694-7.4,10.31-13.095,10.31
		C216.719,371.031,213.35,366.415,214.887,360.721"/>
	<path class="st14" d="M247.456,339.848c2.543,0,4.136,1.941,3.472,4.402c-0.665,2.461-3.307,4.402-5.851,4.402
		c-2.543,0-4.135-1.941-3.471-4.402C242.271,341.788,244.913,339.848,247.456,339.848"/>
	<path class="st14" d="M240.106,352.204c0.212-0.783,1.018-1.419,1.803-1.419h4.989c0.783,0,1.247,0.636,1.036,1.419l-4.586,16.983
		c-0.211,0.783-1.017,1.418-1.802,1.418h-4.989c-0.783,0-1.248-0.636-1.036-1.418L240.106,352.204z"/>
	<path class="st14" d="M214.398,339.848c2.544,0,4.138,1.941,3.473,4.402s-3.307,4.402-5.851,4.402
		c-2.543,0-4.135-1.941-3.471-4.402C209.214,341.788,211.856,339.848,214.398,339.848"/>
	<path class="st14" d="M207.049,352.204c0.212-0.783,1.018-1.419,1.803-1.419h4.988c0.785,0,1.248,0.636,1.037,1.419l-4.586,16.983
		c-0.212,0.783-1.018,1.418-1.802,1.418H203.5c-0.784,0-1.248-0.636-1.036-1.418L207.049,352.204z"/>
	<path class="st1" d="M222.632,358.417c0.887-1.036,1.933-1.587,3.713-1.587s2.873,0.979,2.965,2.417
		c0.243,3.717-3.257,5.257-5.091,5.476C222.259,364.956,219.293,362.315,222.632,358.417"/>
</g>
<g>
	<g transform="translate(42 .866)">
		<path class="st15" d="M270.205,140.222c0-11.056,8.962-20.019,20.019-20.019c11.056,0,20.017,8.964,20.017,20.019
			c0,11.055-8.961,20.019-20.017,20.019S270.205,151.277,270.205,140.222"/>
	</g>
	<path class="st16" d="M319.058,141.088c0-7.272,5.895-13.166,13.165-13.166c7.271,0,13.166,5.894,13.166,13.166
		c0,7.271-5.895,13.165-13.166,13.165C324.952,154.253,319.058,148.359,319.058,141.088"/>
	<path class="st17" d="M325.731,141.088c0-3.586,2.907-6.493,6.493-6.493c3.585,0,6.492,2.907,6.492,6.493
		c0,3.585-2.907,6.493-6.492,6.493C328.638,147.581,325.731,144.674,325.731,141.088"/>
	<path class="st17" d="M282.457,169.927v1.567h4.378v11.718h1.758v-11.718h4.395v-1.567H282.457z M296.575,175.79h3.779
		c0.802,0,1.431-0.082,1.885-0.243c0.454-0.169,0.797-0.436,1.032-0.798c0.236-0.369,0.353-0.767,0.353-1.196
		c0-0.628-0.229-1.145-0.687-1.55c-0.453-0.404-1.172-0.606-2.156-0.607h-4.206V175.79z M294.818,183.213v-13.285h5.89
		c1.184,0,2.084,0.121,2.7,0.362c0.617,0.236,1.106,0.656,1.475,1.26c0.37,0.604,0.554,1.272,0.555,2.003
		c0,0.942-0.306,1.737-0.914,2.383c-0.612,0.646-1.555,1.058-2.828,1.233c0.464,0.223,0.817,0.442,1.061,0.66
		c0.512,0.472,0.999,1.061,1.458,1.768l2.312,3.616h-2.211l-1.759-2.764c-0.514-0.798-0.936-1.408-1.268-1.83
		c-0.333-0.423-0.632-0.72-0.898-0.888c-0.26-0.17-0.525-0.288-0.797-0.354c-0.199-0.043-0.526-0.064-0.978-0.064h-2.039v5.899
		C296.575,183.213,294.818,183.213,294.818,183.213z M308.491,183.213h1.758v-13.285h-1.758V183.213z"/>
	<g>
		<path class="st17" d="M322.828,178.554l1.758,0.445c-0.369,1.444-1.032,2.547-1.994,3.307c-0.953,0.755-2.124,1.133-3.506,1.133
			c-1.432,0-2.597-0.29-3.497-0.869c-0.895-0.586-1.577-1.432-2.05-2.537c-0.465-1.106-0.697-2.293-0.697-3.561
			c0-1.384,0.263-2.588,0.789-3.616c0.531-1.032,1.284-1.814,2.257-2.347c0.978-0.536,2.053-0.806,3.225-0.806
			c1.331,0,2.448,0.338,3.354,1.015c0.905,0.677,1.537,1.628,1.894,2.855l-1.731,0.408c-0.308-0.967-0.756-1.67-1.341-2.112
			c-0.586-0.441-1.323-0.66-2.211-0.661c-1.021,0-1.876,0.244-2.565,0.734c-0.682,0.489-1.162,1.148-1.441,1.975
			c-0.278,0.822-0.417,1.671-0.417,2.547c0,1.13,0.163,2.118,0.49,2.964c0.332,0.84,0.846,1.467,1.54,1.884
			c0.695,0.417,1.447,0.626,2.257,0.626c0.984,0,1.818-0.284,2.501-0.852C322.123,180.514,322.585,179.672,322.828,178.554
			 M328.03,176.77c0,1.601,0.429,2.863,1.287,3.787c0.864,0.919,1.945,1.379,3.244,1.379c1.322,0,2.41-0.466,3.263-1.396
			c0.857-0.929,1.286-2.25,1.286-3.96c0-1.08-0.184-2.024-0.553-2.828c-0.361-0.809-0.897-1.433-1.603-1.875
			c-0.701-0.447-1.49-0.67-2.365-0.67c-1.245,0-2.317,0.429-3.218,1.286C328.476,173.344,328.03,174.77,328.03,176.77
			 M326.217,176.743c0-2.206,0.592-3.93,1.777-5.175c1.184-1.25,2.712-1.876,4.586-1.876c1.226,0,2.332,0.294,3.316,0.879
			c0.985,0.586,1.733,1.405,2.247,2.456c0.521,1.046,0.78,2.233,0.78,3.561c0,1.348-0.272,2.552-0.815,3.616
			c-0.545,1.063-1.315,1.871-2.312,2.42c-0.996,0.543-2.071,0.814-3.225,0.814c-1.251,0-2.37-0.301-3.354-0.905
			c-0.984-0.603-1.731-1.43-2.238-2.474C326.47,179.014,326.217,177.908,326.217,176.743"/>
	</g>
	<path class="st17" d="M341.114,183.212v-13.285h1.758v11.717h6.543v1.568L341.114,183.212L341.114,183.212z"/>
	<g>
		<path class="st17" d="M352.787,176.77c0,1.601,0.428,2.863,1.287,3.787c0.864,0.919,1.944,1.379,3.244,1.379
			c1.322,0,2.41-0.466,3.263-1.396c0.857-0.929,1.286-2.25,1.286-3.96c0-1.08-0.185-2.024-0.553-2.828
			c-0.363-0.809-0.897-1.433-1.604-1.875c-0.701-0.447-1.49-0.67-2.365-0.67c-1.246,0-2.318,0.429-3.218,1.286
			C353.233,173.344,352.787,174.77,352.787,176.77 M350.974,176.743c0-2.206,0.592-3.93,1.777-5.175
			c1.184-1.25,2.711-1.876,4.584-1.876c1.226,0,2.332,0.294,3.317,0.879c0.986,0.586,1.734,1.405,2.247,2.456
			c0.519,1.046,0.779,2.233,0.779,3.561c0,1.348-0.271,2.552-0.816,3.616c-0.543,1.063-1.314,1.871-2.31,2.42
			c-0.996,0.543-2.073,0.814-3.225,0.814c-1.25,0-2.369-0.301-3.354-0.905c-0.984-0.603-1.73-1.43-2.238-2.474
			C351.227,179.014,350.974,177.908,350.974,176.743 M367.73,175.79h3.779c0.803,0,1.432-0.082,1.885-0.243
			c0.452-0.169,0.798-0.436,1.032-0.798c0.236-0.369,0.353-0.767,0.353-1.196c0-0.628-0.229-1.145-0.687-1.55
			c-0.453-0.404-1.172-0.606-2.156-0.607h-4.206C367.73,171.395,367.73,175.79,367.73,175.79z M365.972,183.213v-13.285h5.891
			c1.184,0,2.084,0.121,2.7,0.362c0.617,0.236,1.109,0.656,1.477,1.26c0.369,0.604,0.553,1.272,0.553,2.003
			c0,0.942-0.306,1.737-0.916,2.383c-0.611,0.646-1.552,1.058-2.827,1.233c0.464,0.223,0.817,0.442,1.061,0.66
			c0.513,0.472,0.998,1.061,1.458,1.768l2.31,3.616h-2.209l-1.759-2.764c-0.514-0.798-0.936-1.408-1.269-1.83
			c-0.332-0.423-0.632-0.72-0.898-0.888c-0.26-0.17-0.525-0.288-0.796-0.354c-0.2-0.043-0.527-0.064-0.979-0.064h-2.039v5.899
			L365.972,183.213L365.972,183.213z M379.987,181.239h0.411c0.198,0,0.332-0.028,0.402-0.088c0.073-0.057,0.108-0.135,0.108-0.232
			c0-0.063-0.017-0.118-0.051-0.165c-0.035-0.05-0.084-0.088-0.145-0.112c-0.062-0.024-0.174-0.036-0.339-0.036h-0.386
			L379.987,181.239L379.987,181.239z M379.648,182.423v-2.103h0.723c0.247,0,0.425,0.02,0.536,0.06
			c0.111,0.038,0.198,0.106,0.265,0.203c0.066,0.096,0.099,0.2,0.099,0.307c0,0.155-0.055,0.287-0.166,0.402
			c-0.11,0.113-0.255,0.178-0.435,0.191c0.073,0.031,0.133,0.068,0.177,0.111c0.085,0.084,0.188,0.222,0.311,0.418l0.256,0.411
			h-0.415l-0.185-0.332c-0.147-0.26-0.266-0.424-0.354-0.488c-0.064-0.048-0.154-0.073-0.274-0.073h-0.198v0.894L379.648,182.423
			L379.648,182.423z M380.505,179.713c-0.275,0-0.543,0.07-0.803,0.212c-0.258,0.139-0.462,0.342-0.609,0.603
			c-0.146,0.26-0.219,0.533-0.219,0.816c0,0.281,0.071,0.552,0.215,0.81c0.145,0.258,0.347,0.459,0.607,0.604
			c0.258,0.143,0.528,0.215,0.81,0.215c0.28,0,0.551-0.072,0.81-0.215c0.259-0.145,0.461-0.346,0.603-0.604
			c0.143-0.258,0.215-0.529,0.215-0.81c0-0.283-0.073-0.555-0.219-0.816c-0.145-0.261-0.349-0.463-0.609-0.603
			C381.045,179.783,380.778,179.713,380.505,179.713L380.505,179.713z M380.505,179.389c0.328,0,0.647,0.085,0.96,0.253
			c0.313,0.167,0.555,0.408,0.731,0.722c0.174,0.313,0.261,0.639,0.261,0.979c0,0.337-0.085,0.66-0.258,0.971
			c-0.171,0.31-0.412,0.553-0.723,0.725c-0.309,0.17-0.632,0.256-0.97,0.256c-0.339,0-0.663-0.086-0.974-0.256
			c-0.308-0.173-0.55-0.415-0.722-0.725c-0.173-0.311-0.26-0.634-0.26-0.971c0-0.34,0.087-0.667,0.261-0.979
			c0.177-0.314,0.421-0.555,0.732-0.722C379.857,179.474,380.177,179.389,380.505,179.389z"/>
	</g>
</g>
<g>
	<path class="st18" d="M47.161,319.812c-1.065,0.823-2.56,1.289-3.979,1.289c-3.157,0-4.969-2.11-4.969-5.53
		c0-4.839,2.896-8.182,7.099-8.182c1.42,0,2.728,0.467,3.512,1.27l-1.7,2c-0.485-0.505-1.251-0.784-2.054-0.784
		c-2.242,0-3.625,2.204-3.625,5.586c0,2.054,0.785,3.175,2.224,3.175c0.859,0,1.756-0.317,2.448-0.822L47.161,319.812z"/>
	<path class="st18" d="M51.251,316.637c0.055,1.401,0.747,2.166,2.055,2.166c0.747,0,1.738-0.261,2.428-0.671l0.897,1.625
		c-1.046,0.822-2.727,1.344-4.203,1.344c-2.616,0-4.129-1.68-4.129-4.371c0-3.812,2.373-6.39,5.829-6.39
		c2.41,0,3.699,1.495,3.699,3.98c0,0.784-0.167,1.476-0.429,2.317C57.398,316.637,51.251,316.637,51.251,316.637z M54.988,314.806
		c0.019-0.169,0.019-0.336,0.019-0.523c0-1.139-0.43-1.793-1.29-1.793c-1.196,0-1.961,0.971-2.298,2.317L54.988,314.806
		L54.988,314.806z"/>
	<path class="st18" d="M73.332,313.498l-1.159,7.267h-2.97l1.084-6.819c0.131-0.803-0.112-1.27-0.691-1.27
		c-0.561,0-1.159,0.393-1.607,1.102l-1.102,6.987h-2.972L65,313.946c0.15-0.841-0.075-1.27-0.635-1.27
		c-0.579,0-1.214,0.393-1.681,1.121l-1.102,6.968h-2.97l1.606-10.088h2.84l-0.187,1.177c0.747-0.916,1.962-1.514,3.026-1.514
		c1.121,0,1.869,0.598,2.112,1.607c0.747-0.99,1.98-1.607,3.045-1.607C72.808,310.341,73.63,311.517,73.332,313.498"/>
	<path class="st18" d="M77.57,316.637c0.055,1.401,0.747,2.166,2.055,2.166c0.747,0,1.738-0.261,2.429-0.671l0.896,1.625
		c-1.046,0.822-2.727,1.344-4.203,1.344c-2.615,0-4.128-1.68-4.128-4.371c0-3.812,2.372-6.39,5.828-6.39
		c2.411,0,3.699,1.495,3.699,3.98c0,0.784-0.167,1.476-0.429,2.317C83.717,316.637,77.57,316.637,77.57,316.637z M81.306,314.806
		c0.019-0.169,0.019-0.336,0.019-0.523c0-1.139-0.43-1.793-1.289-1.793c-1.196,0-1.962,0.971-2.298,2.317L81.306,314.806
		L81.306,314.806z"/>
	<path class="st18" d="M94.662,313.498l-1.159,7.267h-2.951l1.084-6.819c0.112-0.803-0.186-1.27-0.841-1.27
		c-0.635,0-1.326,0.429-1.812,1.196l-1.083,6.894h-2.97l1.606-10.088h2.84l-0.187,1.177c0.804-0.971,2.037-1.514,3.12-1.514
		C94.027,310.341,94.962,311.611,94.662,313.498"/>
	<path class="st18" d="M96.548,317.832l0.804-5.007h-1.421l0.262-1.756l0.971-0.224c0.336-0.094,0.522-0.206,0.691-0.692
		l0.542-1.644h2.578l-0.337,2.167h2.411l-0.355,2.148h-2.392l-0.747,4.764c-0.13,0.822,0.15,1.139,0.766,1.139
		c0.393,0,0.897-0.112,1.495-0.336v2.167c-0.935,0.374-1.793,0.542-2.541,0.542C97.369,321.102,96.212,319.963,96.548,317.832"/>
	<path class="st18" d="M112.894,314.712c0,3.812-2.354,6.389-5.829,6.389c-2.616,0-4.129-1.681-4.129-4.391
		c0-3.793,2.372-6.37,5.829-6.37C111.399,310.341,112.894,312.022,112.894,314.712 M109.83,314.843c0-1.345-0.505-2.148-1.438-2.148
		c-1.495,0-2.372,1.681-2.372,3.886c0,1.364,0.485,2.186,1.42,2.186C108.933,318.767,109.83,317.048,109.83,314.843"/>
	<path class="st18" d="M118.87,314.619c1.271,0.355,2.858,0.841,2.858,2.69c0,2.26-2.11,3.792-5.025,3.792
		c-1.514,0-3.064-0.56-3.848-1.42l1.55-1.774c0.635,0.56,1.626,0.953,2.522,0.953c1.047,0,1.681-0.411,1.681-1.066
		c0-0.615-0.56-0.784-1.495-1.063c-1.213-0.355-2.877-0.935-2.877-2.785c0-2.205,1.813-3.605,4.577-3.605
		c1.328,0,2.804,0.448,3.681,1.159l-1.569,1.774c-0.503-0.411-1.382-0.691-2.222-0.691c-0.842,0-1.457,0.393-1.457,0.953
		C117.245,314.133,117.843,314.32,118.87,314.619"/>
	<path class="st18" d="M58.76,256.99H47c-3.999,0-7.985,0.725-10.563,3.021c-6.275,5.586-6.46,12.14-5.093,17.941
		c0.009,0.039,0.018,0.078,0.027,0.117c0.035,0.147,0.075,0.292,0.113,0.437c0.699,2.534,2.185,5.328,4.142,7.546
		c-0.066-0.955-0.065-2.01,0.009-3.179c0.04-0.625,0.097-1.277,0.176-1.965c0.512-4.442,1.882-7.796,3.674-10.217
		c1.152-1.47,2.69-2.988,4.575-3.964c1.884-0.975,4.031-1.076,4.641-1.107c0.876-0.044,1.752,0,2.603,0h6.641
		c0.656,0,1.21-0.485,1.298-1.134l0.815-6.009C60.164,257.689,59.553,256.99,58.76,256.99"/>
	<path class="st19" d="M124.19,275.018c-0.854-3.166-2.819-5.268-5.952-6.29c-1.355-0.441-2.762-0.681-4.214-0.791
		c-2.047-0.154-4.11-0.045-6.191,0.411c-0.645,0.143-1.289,0.308-1.99,0.477c-0.004-0.257-0.026-0.433-0.004-0.608
		c0.415-3.344,0.843-6.687,1.253-10.031c0.134-1.088,0.038-1.19-1.023-1.192c-2.655-0.006-5.311-0.006-7.969,0
		c-1.034,0.002-1.117,0.077-1.246,1.131c-1.667,13.561-3.331,27.121-4.991,40.682h-0.001l-0.328,2.577
		c-0.044,0.341,0.222,0.643,0.566,0.643h14.19l-0.024-0.005c2.251-0.031,4.51-0.256,6.789-0.862c2.939-0.78,5.471-2.272,7.403-4.773
		c1.968-2.547,2.846-5.419,3.281-8.39c0.324-2.218,0.58-4.438,0.819-6.657C124.792,279.175,124.739,277.052,124.19,275.018
		 M114.429,282.541c-0.129,1.557-0.295,3.124-0.582,4.678c-0.229,1.234-0.578,2.478-1.03,3.677
		c-0.805,2.138-2.482,3.097-4.689,3.215c-1.566,0.084-3.122,0.022-4.681,0.005c-0.825-0.009-0.896-0.09-0.797-0.926
		c0.316-2.653,1.605-13.136,1.929-15.726c0.112-0.894,0.223-1.008,1.083-1.241c2.051-0.558,4.082-0.586,6.077-0.371
		c1.587,0.171,2.636,1.401,2.745,3.164C114.554,280.178,114.525,281.362,114.429,282.541"/>
	<path class="st19" d="M90.497,275.018c-0.854-3.166-2.819-5.268-5.952-6.29c-1.355-0.441-2.762-0.681-4.214-0.791
		c-2.047-0.154-4.11-0.045-6.191,0.411c-0.645,0.143-1.289,0.308-1.99,0.477c-0.004-0.257-0.026-0.433-0.004-0.608
		c0.415-3.344,0.843-6.687,1.253-10.031c0.134-1.088,0.038-1.19-1.023-1.192c-2.655-0.006-5.311-0.006-7.969,0
		c-1.034,0.002-1.117,0.077-1.246,1.131c-1.666,13.561-3.331,27.121-4.991,40.682h-0.001l-0.328,2.577
		c-0.044,0.341,0.222,0.643,0.566,0.643h14.19l-0.024-0.005c2.251-0.031,4.51-0.256,6.789-0.862c2.939-0.78,5.471-2.272,7.403-4.773
		c1.968-2.547,2.846-5.419,3.281-8.39c0.324-2.218,0.58-4.438,0.819-6.657C91.099,279.175,91.046,277.052,90.497,275.018
		 M80.736,282.541c-0.129,1.557-0.295,3.124-0.582,4.678c-0.229,1.234-0.578,2.478-1.03,3.677c-0.805,2.138-2.482,3.097-4.689,3.215
		c-1.566,0.084-3.122,0.022-4.681,0.005c-0.825-0.009-0.896-0.09-0.797-0.926c0.316-2.653,1.605-13.136,1.929-15.726
		c0.112-0.894,0.223-1.008,1.083-1.241c2.051-0.558,4.082-0.586,6.077-0.371c1.587,0.171,2.636,1.401,2.745,3.164
		C80.861,280.178,80.833,281.362,80.736,282.541"/>
	<path class="st19" d="M55.207,289.947c-3.354,1.864-11.223,3.858-16.912,2.102c-3.829-1.181-6.411-3.5-8.036-6.388v0.004
		c-1.542-2.408-3.006-8.152-3.275-12.53c-2.188,5.69-3.459,12.71-0.227,20.608c1.981,5.032,7.108,7.845,10.498,8.195
		c6.676,0.808,12.989-0.465,17.305-2.176c0.278-0.11,0.468-0.364,0.505-0.66l0.1-0.811v-0.005l0.42-3.398c0-0.002,0-0.005,0-0.007
		l0.533-4.329C56.179,290.052,55.647,289.703,55.207,289.947"/>
</g>
<g>
	<ellipse class="st20" cx="-76.193" cy="346.707" rx="50" ry="16.158"/>
	<polygon class="st21" points="-62.266,357.506 -76.232,357.538 -90.199,357.506 -83.243,345.395 -76.232,333.317 -69.22,345.395 	
		"/>
	<polygon class="st22" points="-62.266,357.506 -76.232,357.538 -90.199,357.506 -83.243,345.395 -76.232,333.317 -69.22,345.395 	
		"/>
	<path class="st8" d="M-113.955,347.765h-3.762l1.22-3.444c0.13-0.391,0.251-0.778,0.358-1.161c0.108-0.382,0.203-0.749,0.282-1.101
		h0.02c0.081,0.376,0.171,0.739,0.272,1.088c0.102,0.349,0.219,0.707,0.348,1.073L-113.955,347.765z M-109.453,352.585
		l-4.822-13.506h-2.942l-4.722,13.506h2.621l0.941-2.762h5.102l0.94,2.762H-109.453z"/>
	<path class="st8" d="M-102.621,342.422c-0.855-0.048-1.537,0.147-2.047,0.585c-0.509,0.437-0.881,0.982-1.115,1.635h-0.04
		c0.06-0.359,0.105-0.717,0.135-1.075s0.045-0.667,0.045-0.925h-2.419v9.944h2.559v-4.061c0-2.766,0.92-3.961,2.761-3.583
		L-102.621,342.422z"/>
	<path class="st8" d="M-95.506,342.422c-0.854-0.048-1.537,0.147-2.047,0.585c-0.509,0.437-0.881,0.982-1.115,1.635h-0.04
		c0.06-0.359,0.105-0.717,0.136-1.075c0.03-0.358,0.044-0.667,0.044-0.925h-2.419v9.944h2.559v-4.061
		c0-2.766,0.921-3.961,2.762-3.583L-95.506,342.422z"/>
	<path class="st8" d="M-88.227,346.285h-3.666c0.076-0.609,0.285-1.09,0.626-1.443c0.341-0.353,0.78-0.534,1.316-0.541
		c0.548,0.005,0.975,0.18,1.282,0.526C-88.361,345.172-88.215,345.658-88.227,346.285z M-85.689,346.864
		c0.007-1.264-0.327-2.311-1.002-3.145c-0.676-0.834-1.735-1.266-3.179-1.297c-1.499,0.03-2.649,0.53-3.45,1.5
		c-0.8,0.97-1.204,2.23-1.213,3.781c0.009,1.744,0.433,3.029,1.276,3.855c0.843,0.825,2.059,1.235,3.647,1.227
		c0.626,0,1.242-0.054,1.849-0.162s1.178-0.266,1.712-0.477l-0.24-1.98c-0.435,0.201-0.904,0.355-1.403,0.461
		c-0.502,0.106-1,0.16-1.497,0.16c-0.92,0.002-1.611-0.226-2.069-0.683s-0.683-1.15-0.673-2.08h6.163
		c0.029-0.211,0.051-0.414,0.063-0.609C-85.694,347.217-85.688,347.035-85.689,346.864z"/>
	<path class="st8" d="M-77.696,347.423c-0.004,0.881-0.194,1.637-0.567,2.27c-0.374,0.633-0.899,0.964-1.575,0.994
		c-0.578-0.002-1.008-0.239-1.287-0.714c-0.278-0.474-0.417-1.177-0.415-2.11c0.012-1.219,0.247-2.09,0.703-2.615
		s1.056-0.782,1.799-0.768c0.221,0,0.441,0.014,0.664,0.042c0.223,0.028,0.45,0.067,0.678,0.118
		C-77.696,344.64-77.696,347.423-77.696,347.423z M-75.157,352.585v-14.607h-2.538v4.563c-0.219-0.029-0.431-0.05-0.638-0.062
		c-0.206-0.013-0.414-0.018-0.624-0.018c-1.664,0.027-2.954,0.553-3.869,1.58c-0.916,1.027-1.38,2.394-1.393,4.103
		c0,1.437,0.3,2.57,0.902,3.397s1.508,1.248,2.719,1.265c0.763-0.01,1.412-0.185,1.947-0.527c0.534-0.342,0.933-0.793,1.196-1.353
		h0.041c-0.041,0.276-0.071,0.56-0.09,0.853c-0.021,0.293-0.03,0.562-0.03,0.807L-75.157,352.585L-75.157,352.585z"/>
	<path class="st8" d="M-65.994,347.564c-0.013,1.012-0.226,1.771-0.637,2.28c-0.412,0.508-0.94,0.763-1.585,0.763
		c-0.741-0.001-1.297-0.259-1.667-0.776c-0.37-0.516-0.555-1.285-0.555-2.307c0.023-1.015,0.257-1.758,0.703-2.228
		s0.967-0.701,1.559-0.696c0.748,0.004,1.3,0.257,1.654,0.761C-66.167,345.865-65.99,346.6-65.994,347.564z M-63.355,347.423
		c-0.016-1.705-0.437-2.963-1.261-3.774c-0.826-0.811-1.951-1.214-3.38-1.207c-1.535,0.029-2.758,0.531-3.676,1.507
		c-0.914,0.976-1.383,2.254-1.406,3.835c0.016,1.758,0.437,3.035,1.263,3.829c0.824,0.794,1.95,1.186,3.379,1.172
		c1.516-0.028,2.736-0.531,3.659-1.51C-63.853,350.298-63.38,349.013-63.355,347.423z"/>
	<path class="st8" d="M-52.661,352.585v-6.984c0.016-0.894-0.197-1.642-0.641-2.242c-0.441-0.601-1.215-0.914-2.319-0.937
		c-0.814,0.009-1.505,0.195-2.075,0.557s-1.006,0.843-1.309,1.442l-0.02-0.02c0.049-0.272,0.085-0.573,0.107-0.902
		c0.022-0.33,0.034-0.615,0.034-0.858h-2.421v9.944h2.559v-4.801c0.016-0.897,0.24-1.652,0.675-2.265
		c0.433-0.613,0.981-0.933,1.65-0.958c0.462,0.004,0.783,0.151,0.962,0.44c0.18,0.29,0.266,0.697,0.259,1.222v6.363L-52.661,352.585
		L-52.661,352.585z"/>
	<path class="st8" d="M-44.025,347.423c-0.004,0.881-0.194,1.637-0.569,2.27c-0.372,0.633-0.898,0.964-1.573,0.994
		c-0.579-0.002-1.009-0.239-1.287-0.714c-0.28-0.474-0.417-1.177-0.416-2.11c0.014-1.219,0.247-2.09,0.703-2.615
		c0.457-0.525,1.057-0.782,1.801-0.768c0.221,0,0.441,0.014,0.664,0.042c0.222,0.028,0.448,0.067,0.678,0.118v2.783H-44.025z
		 M-41.485,352.585v-14.607h-2.54v4.563c-0.219-0.029-0.432-0.05-0.638-0.062c-0.205-0.013-0.414-0.018-0.623-0.018
		c-1.665,0.027-2.954,0.553-3.87,1.58c-0.916,1.027-1.379,2.394-1.392,4.103c0,1.437,0.3,2.57,0.903,3.397
		c0.602,0.827,1.508,1.248,2.718,1.265c0.763-0.01,1.412-0.185,1.946-0.527s0.933-0.793,1.197-1.353h0.038
		c-0.038,0.276-0.07,0.56-0.089,0.853s-0.03,0.562-0.03,0.807L-41.485,352.585L-41.485,352.585z"/>
	<path class="st8" d="M-32.322,347.564c-0.014,1.012-0.227,1.771-0.639,2.28c-0.41,0.508-0.938,0.763-1.584,0.763
		c-0.741-0.001-1.296-0.259-1.667-0.776c-0.37-0.516-0.555-1.285-0.555-2.307c0.023-1.015,0.257-1.758,0.703-2.228
		s0.967-0.701,1.559-0.696c0.748,0.004,1.3,0.257,1.654,0.761C-32.496,345.865-32.32,346.6-32.322,347.564z M-29.684,347.423
		c-0.017-1.705-0.437-2.963-1.263-3.774c-0.824-0.811-1.951-1.214-3.378-1.207c-1.535,0.029-2.759,0.531-3.675,1.507
		c-0.914,0.976-1.384,2.254-1.407,3.835c0.018,1.758,0.438,3.035,1.264,3.829c0.825,0.794,1.95,1.186,3.378,1.172
		c1.517-0.028,2.737-0.531,3.66-1.51C-30.183,350.298-29.709,349.013-29.684,347.423z"/>
	<path class="st8" d="M-30.259,342.06v0.414l0.21,0.001c0.081,0,0.142-0.007,0.182-0.023c0.039-0.016,0.069-0.04,0.091-0.074
		c0.021-0.035,0.034-0.072,0.034-0.114c0-0.041-0.013-0.078-0.034-0.111c-0.023-0.033-0.052-0.058-0.087-0.072
		c-0.036-0.014-0.096-0.021-0.182-0.021H-30.259z M-30.382,341.941h0.243c0.137,0,0.227,0.005,0.275,0.017
		c0.073,0.017,0.132,0.053,0.177,0.107s0.068,0.121,0.068,0.201c0,0.066-0.015,0.124-0.047,0.174
		c-0.031,0.05-0.076,0.089-0.134,0.114c-0.058,0.025-0.137,0.039-0.24,0.04l0.437,0.567h-0.148l-0.439-0.567h-0.069v0.567h-0.123
		V341.941z"/>
	<path class="st8" d="M-104.996,358.093l-0.076-0.567c-0.112,0.055-0.244,0.097-0.395,0.13c-0.152,0.034-0.296,0.05-0.435,0.052
		c-0.428-0.003-0.744-0.127-0.948-0.375c-0.203-0.248-0.305-0.602-0.303-1.064c-0.001-0.421,0.095-0.767,0.29-1.037
		s0.498-0.41,0.909-0.419c0.143,0,0.285,0.011,0.427,0.034c0.141,0.023,0.284,0.056,0.427,0.1l0.07-0.584
		c-0.139-0.033-0.281-0.06-0.429-0.08s-0.295-0.031-0.443-0.031c-0.441,0.004-0.806,0.096-1.094,0.277s-0.502,0.431-0.642,0.748
		c-0.141,0.318-0.211,0.683-0.21,1.096c-0.002,0.355,0.055,0.676,0.175,0.962c0.118,0.287,0.31,0.514,0.576,0.684
		c0.265,0.169,0.616,0.256,1.055,0.26c0.192-0.001,0.376-0.017,0.554-0.05C-105.31,358.198-105.146,358.153-104.996,358.093z"/>
	<path class="st8" d="M-102.128,357.188h-0.959l0.328-0.86c0.03-0.08,0.057-0.16,0.085-0.242c0.027-0.081,0.05-0.158,0.068-0.232
		h0.005c0.021,0.071,0.045,0.149,0.073,0.233c0.027,0.084,0.056,0.165,0.086,0.246L-102.128,357.188z M-101.052,358.234l-1.146-3.04
		h-0.743l-1.152,3.04h0.631l0.223-0.59h1.268l0.216,0.59H-101.052z"/>
	<polygon class="st8" points="-98.224,358.234 -98.224,357.685 -99.271,357.685 -99.271,355.194 -99.902,355.194 -99.902,358.234 	
		"/>
	<rect x="-97.044" y="355.194" class="st8" width="0.631" height="3.04"/>
	<path class="st8" d="M-92.775,356.702c-0.005,0.345-0.104,0.602-0.297,0.771c-0.193,0.17-0.449,0.254-0.767,0.253
		c-0.069,0-0.138-0.003-0.208-0.007c-0.069-0.004-0.127-0.008-0.172-0.011v-2.007c0.063-0.002,0.13-0.005,0.202-0.007
		c0.072-0.003,0.139-0.004,0.201-0.004c0.345,0,0.606,0.085,0.78,0.254C-92.862,356.113-92.775,356.366-92.775,356.702z
		 M-92.102,356.667c-0.007-0.524-0.155-0.904-0.447-1.139c-0.291-0.235-0.69-0.349-1.196-0.346c-0.185,0-0.381,0.002-0.585,0.005
		c-0.205,0.005-0.378,0.006-0.519,0.006v3.04c0.13,0.003,0.273,0.006,0.427,0.01c0.155,0.005,0.328,0.007,0.52,0.007
		c0.345,0,0.651-0.055,0.921-0.167c0.271-0.112,0.483-0.287,0.64-0.52C-92.186,357.33-92.106,357.031-92.102,356.667z"/>
	<path class="st8" d="M-89.329,357.188h-0.958l0.327-0.86c0.029-0.08,0.058-0.16,0.084-0.242c0.027-0.081,0.05-0.158,0.068-0.232
		h0.006c0.021,0.071,0.044,0.149,0.073,0.233c0.026,0.084,0.055,0.165,0.085,0.246L-89.329,357.188z M-88.252,358.234l-1.146-3.04
		h-0.742l-1.152,3.04h0.632l0.222-0.59h1.27l0.216,0.59H-88.252z"/>
	<path class="st8" d="M-85.026,356.702c-0.005,0.345-0.104,0.602-0.297,0.771c-0.194,0.17-0.449,0.254-0.768,0.253
		c-0.069,0-0.138-0.003-0.207-0.007s-0.128-0.008-0.173-0.011v-2.007c0.063-0.002,0.131-0.005,0.202-0.007
		c0.071-0.003,0.14-0.004,0.202-0.004c0.345,0,0.606,0.085,0.779,0.254C-85.113,356.113-85.026,356.366-85.026,356.702z
		 M-84.354,356.667c-0.006-0.524-0.154-0.904-0.446-1.139c-0.291-0.235-0.691-0.349-1.197-0.346c-0.185,0-0.38,0.002-0.585,0.005
		c-0.205,0.005-0.378,0.006-0.52,0.006v3.04c0.13,0.003,0.273,0.006,0.427,0.01c0.154,0.005,0.328,0.007,0.52,0.007
		c0.344,0,0.652-0.055,0.921-0.167c0.27-0.112,0.483-0.287,0.639-0.52C-84.438,357.33-84.358,357.031-84.354,356.667z"/>
	<path class="st8" d="M-79.744,356.199c-0.002,0.179-0.058,0.314-0.169,0.406c-0.11,0.091-0.265,0.138-0.464,0.138
		c-0.041,0-0.088-0.001-0.138-0.005s-0.093-0.01-0.13-0.019v-1.03c0.041-0.003,0.089-0.004,0.142-0.005c0.053,0,0.11-0.001,0.169,0
		c0.196,0.003,0.343,0.052,0.442,0.146C-79.794,355.925-79.744,356.047-79.744,356.199z M-79.072,356.159
		c-0.003-0.31-0.107-0.55-0.315-0.722c-0.209-0.17-0.507-0.258-0.895-0.26c-0.181,0.001-0.359,0.003-0.535,0.007
		c-0.173,0.003-0.328,0.006-0.458,0.01v3.04h0.63v-1.001c0.041,0.003,0.085,0.006,0.135,0.008c0.05,0.002,0.095,0.004,0.133,0.004
		c0.393-0.004,0.708-0.102,0.943-0.293C-79.199,356.76-79.077,356.495-79.072,356.159z"/>
	<path class="st8" d="M-75.699,356.726c-0.005,0.338-0.093,0.591-0.259,0.757s-0.375,0.249-0.624,0.249
		c-0.297-0.006-0.511-0.108-0.645-0.301c-0.134-0.193-0.199-0.438-0.198-0.735c0.007-0.328,0.095-0.578,0.261-0.749
		c0.165-0.171,0.368-0.256,0.606-0.257c0.263,0,0.471,0.089,0.626,0.263C-75.78,356.128-75.702,356.386-75.699,356.726z
		 M-75.022,356.685c-0.006-0.515-0.146-0.901-0.417-1.158c-0.271-0.257-0.629-0.386-1.078-0.386
		c-0.285,0.001-0.547,0.066-0.784,0.194c-0.238,0.127-0.428,0.31-0.573,0.548c-0.144,0.239-0.218,0.525-0.222,0.86
		c0,0.464,0.123,0.835,0.368,1.113c0.247,0.279,0.618,0.423,1.111,0.43c0.294-0.001,0.56-0.065,0.801-0.191
		c0.241-0.127,0.432-0.31,0.575-0.547C-75.099,357.309-75.025,357.021-75.022,356.685z"/>
	<path class="st8" d="M-72.261,356.082c-0.001,0.146-0.051,0.261-0.15,0.347c-0.096,0.086-0.23,0.131-0.4,0.133
		c-0.049,0-0.099-0.002-0.15-0.004c-0.05-0.002-0.097-0.005-0.142-0.008v-0.877c0.041-0.006,0.083-0.009,0.125-0.01
		c0.044-0.001,0.091-0.002,0.143-0.001c0.18,0,0.321,0.036,0.421,0.108C-72.313,355.839-72.262,355.944-72.261,356.082z
		 M-71.426,358.234l-0.753-1.018c-0.047-0.064-0.091-0.124-0.132-0.18c-0.039-0.057-0.078-0.105-0.114-0.147
		c0.247-0.037,0.446-0.13,0.597-0.277s0.228-0.344,0.234-0.594c-0.003-0.28-0.104-0.491-0.301-0.631
		c-0.199-0.139-0.481-0.21-0.846-0.21c-0.191,0-0.376,0.002-0.554,0.004c-0.179,0.003-0.325,0.007-0.44,0.013v3.04h0.631v-1.251
		h0.028l0.873,1.251H-71.426z"/>
	<path class="st8" d="M-66.212,357.041c-0.009-0.302-0.099-0.529-0.27-0.68c-0.17-0.152-0.368-0.27-0.591-0.353
		c-0.226-0.083-0.423-0.173-0.595-0.269c-0.169-0.096-0.259-0.239-0.269-0.43c0.001-0.166,0.063-0.3,0.188-0.401
		c0.124-0.1,0.309-0.152,0.555-0.155c0.118,0.001,0.238,0.011,0.359,0.03c0.121,0.02,0.238,0.046,0.354,0.082l0.035-0.566
		c-0.12-0.022-0.24-0.038-0.36-0.051c-0.118-0.013-0.236-0.019-0.354-0.019c-0.462,0.006-0.817,0.112-1.069,0.321
		c-0.252,0.208-0.378,0.485-0.38,0.83c0.008,0.312,0.099,0.543,0.269,0.696c0.172,0.151,0.369,0.268,0.593,0.348
		c0.226,0.081,0.424,0.168,0.593,0.265c0.172,0.097,0.262,0.245,0.271,0.446c-0.006,0.212-0.082,0.366-0.229,0.464
		c-0.148,0.098-0.333,0.145-0.556,0.144c-0.145-0.001-0.288-0.015-0.433-0.042c-0.143-0.027-0.272-0.062-0.385-0.104l-0.034,0.601
		c0.114,0.03,0.239,0.053,0.373,0.07c0.138,0.015,0.276,0.024,0.421,0.025c0.476-0.007,0.845-0.125,1.11-0.354
		C-66.35,357.71-66.216,357.411-66.212,357.041z"/>
	<rect x="-64.904" y="355.194" class="st8" width="0.632" height="3.04"/>
	<polygon class="st8" points="-60.92,358.234 -60.92,357.732 -62.078,357.732 -62.078,356.912 -60.973,356.912 -60.973,356.434 
		-62.078,356.434 -62.078,355.69 -60.92,355.69 -60.92,355.194 -62.708,355.194 -62.708,358.234 	"/>
	<path class="st8" d="M-55.647,358.234l-0.457-3.04h-0.813l-0.584,1.724c-0.033,0.095-0.061,0.185-0.086,0.271
		c-0.026,0.087-0.05,0.182-0.073,0.285h-0.006c-0.018-0.094-0.04-0.19-0.068-0.287c-0.026-0.097-0.054-0.192-0.084-0.287
		l-0.567-1.707h-0.79l-0.467,3.04h0.631l0.199-1.555c0.018-0.133,0.033-0.259,0.046-0.378c0.014-0.118,0.024-0.234,0.03-0.347h0.006
		c0.021,0.104,0.048,0.217,0.083,0.337c0.032,0.121,0.068,0.236,0.104,0.347l0.52,1.596h0.668l0.572-1.719
		c0.032-0.1,0.061-0.198,0.088-0.295c0.026-0.097,0.047-0.187,0.065-0.273h0.004c0.01,0.084,0.021,0.186,0.033,0.302
		c0.013,0.116,0.03,0.247,0.051,0.393l0.228,1.591h0.667V358.234z"/>
	<path class="st8" d="M-52.694,356.199c-0.001,0.179-0.058,0.314-0.169,0.406c-0.11,0.091-0.265,0.138-0.463,0.138
		c-0.043,0-0.089-0.001-0.139-0.005s-0.093-0.01-0.131-0.019v-1.03c0.042-0.003,0.09-0.004,0.143-0.005c0.053,0,0.109-0.001,0.169,0
		c0.195,0.003,0.344,0.052,0.442,0.146C-52.744,355.925-52.694,356.047-52.694,356.199z M-52.023,356.159
		c-0.002-0.31-0.107-0.55-0.316-0.722c-0.209-0.17-0.506-0.258-0.894-0.26c-0.182,0.001-0.359,0.003-0.535,0.007
		c-0.175,0.003-0.327,0.006-0.459,0.01v3.04h0.63v-1.001c0.04,0.003,0.085,0.006,0.135,0.008c0.051,0.002,0.095,0.004,0.135,0.004
		c0.392-0.004,0.707-0.102,0.941-0.293C-52.149,356.76-52.029,356.495-52.023,356.159z"/>
	<path class="st8" d="M-49.304,356.082c-0.003,0.146-0.052,0.261-0.15,0.347c-0.097,0.086-0.231,0.131-0.401,0.133
		c-0.049,0-0.099-0.002-0.15-0.004c-0.05-0.002-0.097-0.005-0.142-0.008v-0.877c0.04-0.006,0.082-0.009,0.127-0.01
		c0.043-0.001,0.09-0.002,0.144-0.001c0.179,0,0.319,0.036,0.419,0.108C-49.357,355.839-49.306,355.944-49.304,356.082z
		 M-48.468,358.234l-0.754-1.018c-0.046-0.064-0.09-0.124-0.131-0.18c-0.041-0.057-0.08-0.105-0.115-0.147
		c0.247-0.037,0.447-0.13,0.599-0.277c0.151-0.147,0.228-0.344,0.232-0.594c-0.003-0.28-0.103-0.491-0.301-0.631
		c-0.198-0.139-0.48-0.21-0.845-0.21c-0.192,0-0.376,0.002-0.554,0.004c-0.178,0.003-0.325,0.007-0.44,0.013v3.04h0.631v-1.251h0.03
		l0.872,1.251H-48.468z"/>
	<polygon class="st8" points="-45.431,358.234 -45.431,357.732 -46.589,357.732 -46.589,356.912 -45.483,356.912 -45.483,356.434 
		-46.589,356.434 -46.589,355.69 -45.431,355.69 -45.431,355.194 -47.22,355.194 -47.22,358.234 	"/>
</g>
<g>
	<rect y="34.095" class="st23" width="100" height="31.809"/>
	<g>
		<path class="st24" d="M13.914,47.368c0-1.022,1.217-1.075,2.006-1.075c1.174,0,2.217,0.343,3.039,0.683l0.292-2.511
			c-0.898-0.281-2.056-0.539-3.576-0.539c-2.348,0-4.946,0.722-4.946,3.537c0,4.256,5.9,3.063,5.9,5.15
			c0,0.897-1.139,1.093-2.129,1.093c-1.429,0-2.639-0.416-3.441-0.853l-0.357,2.652c0.777,0.252,2.229,0.568,3.798,0.568
			c2.599,0,5.346-0.693,5.346-3.726C19.845,48.257,13.914,49.213,13.914,47.368z"/>
		<polygon class="st24" points="30.489,44.152 20.662,44.152 20.662,46.528 24.018,46.528 24.018,55.85 27.135,55.85 27.135,46.528 
			30.489,46.528 		"/>
		<polygon class="st24" points="85.712,44.152 83.448,48.843 81.153,44.152 77.566,44.152 81.891,51.441 81.891,55.85 85.008,55.85 
			85.008,51.441 89.299,44.152 		"/>
		<polygon class="st24" points="43.929,44.152 43.929,55.85 46.93,55.85 46.93,49.545 52.019,55.85 54.569,55.85 54.569,54.089 
			46.494,44.152 		"/>
		<polygon class="st24" points="54.569,44.152 49.794,44.152 54.569,50.075 		"/>
		<polygon class="st24" points="70.808,51.116 75.725,51.116 75.725,48.783 70.808,48.783 70.808,46.451 76.212,46.451 
			76.212,44.152 67.611,44.152 67.611,55.85 76.396,55.85 76.396,53.517 70.808,53.517 		"/>
		<polygon class="st24" points="60.612,44.152 57.415,44.152 57.415,55.85 65.728,55.85 65.728,53.441 60.612,53.441 		"/>
		<path class="st24" d="M34.241,44.152l-4.29,11.697h3.043l0.794-2.338h4.379l0.765,2.338h3.282l-4.353-11.697H34.241z
			 M34.502,51.301l1.518-4.696l1.459,4.696H34.502z"/>
		<path class="st24" d="M86.749,55.159V55.15c0.083-0.026,0.149-0.082,0.149-0.169c0-0.07-0.03-0.121-0.074-0.152
			c-0.048-0.035-0.108-0.057-0.243-0.057c-0.117,0-0.209,0.013-0.273,0.022v0.713h0.164v-0.282h0.078
			c0.092,0,0.135,0.034,0.148,0.109c0.023,0.086,0.035,0.148,0.056,0.174h0.174c-0.013-0.025-0.03-0.065-0.052-0.174
			C86.853,55.237,86.82,55.181,86.749,55.159z M86.553,55.107h-0.078v-0.204c0.017-0.005,0.048-0.009,0.092-0.009
			c0.104,0,0.152,0.043,0.152,0.11C86.72,55.076,86.646,55.107,86.553,55.107z"/>
		<path class="st24" d="M86.588,54.424h-0.004c-0.41,0-0.734,0.313-0.734,0.713c0,0.4,0.325,0.718,0.734,0.718
			c0.408,0,0.73-0.318,0.73-0.718C87.314,54.737,86.992,54.424,86.588,54.424z M86.588,55.706c-0.318,0-0.556-0.252-0.556-0.569
			c0-0.311,0.238-0.57,0.548-0.57h0.005c0.313,0,0.548,0.258,0.548,0.575C87.132,55.455,86.897,55.711,86.588,55.706z"/>
	</g>
</g>
</svg>
